<svg width="16" height="16" viewBox="0 0 16 16" xmlns="http://www.w3.org/2000/svg"><path d="M10.667 3.4c.66 0 1.2-.54 1.2-1.2 0-.66-.54-1.2-1.2-1.2-.667 0-1.2.54-1.2 1.2 0 .66.533 1.2 1.2 1.2zm2 4.8c-1.84 0-3.334 1.493-3.334 3.333s1.494 3.334 3.334 3.334S16 13.373 16 11.533 14.507 8.2 12.667 8.2zm0 5.667c-1.287 0-2.334-1.047-2.334-2.334 0-1.286 1.047-2.333 2.334-2.333C13.953 9.2 15 10.247 15 11.533c0 1.287-1.047 2.334-2.333 2.334zm-2.8-7h2.8v-1.2h-2.134l-1.286-2.18c-.2-.334-.56-.554-.974-.554-.313 0-.593.127-.8.334L5.007 5.733c-.214.2-.34.487-.34.8 0 .42.22.774.566.98l2.234 1.354V12.2h1.2V7.88l-1.5-1.113 1.546-1.554 1.154 1.654zM3.333 8.2C1.493 8.2 0 9.693 0 11.533s1.493 3.334 3.333 3.334 3.334-1.494 3.334-3.334S5.173 8.2 3.333 8.2zm0 5.667C2.047 13.867 1 12.82 1 11.533 1 10.247 2.047 9.2 3.333 9.2c1.287 0 2.334 1.047 2.334 2.333 0 1.287-1.047 2.334-2.334 2.334z" fill="#FFF" fill-rule="evenodd"/></svg>