<svg width="16" height="16" viewBox="0 0 16 16" xmlns="http://www.w3.org/2000/svg"><path d="M3 11.333c0 .587.26 1.114.667 1.48V14c0 .367.3.667.666.667H5c.367 0 .667-.3.667-.667v-.667H11V14c0 .367.3.667.667.667h.666c.367 0 .667-.3.667-.667v-1.187c.407-.366.667-.893.667-1.48V4.667C13.667 2.333 11.28 2 8.333 2 5.387 2 3 2.333 3 4.667v6.666zM5.333 12c-.553 0-1-.447-1-1 0-.553.447-1 1-1 .554 0 1 .447 1 1 0 .553-.446 1-1 1zm6 0c-.553 0-1-.447-1-1 0-.553.447-1 1-1 .554 0 1 .447 1 1 0 .553-.446 1-1 1zm1-4h-8V4.667h8V8z" fill="#FFF" fill-rule="evenodd"/></svg>