<svg width="16" height="16" viewBox="0 0 16 16" xmlns="http://www.w3.org/2000/svg"><path d="M13.002 14.333c-.927 0-1.854-.313-2.667-.88-1.627 1.14-3.707 1.14-5.333 0-.814.567-1.74.88-2.667.88H1.002v1.334h1.333c.92 0 1.827-.234 2.667-.66 1.68.86 3.653.86 5.333 0 .84.433 1.747.66 2.667.66h1.333v-1.334h-1.333zM2.302 13h.033c1.067 0 2.013-.587 2.667-1.333.653.746 1.6 1.333 2.666 1.333 1.067 0 2.014-.587 2.667-1.333.653.746 1.6 1.333 2.667 1.333h.033l1.26-4.453c.053-.174.04-.36-.04-.52-.08-.16-.227-.28-.4-.334l-.853-.28v-3.08c0-.733-.6-1.333-1.334-1.333h-2V1h-4v2h-2c-.733 0-1.333.6-1.333 1.333v3.08l-.86.28c-.173.054-.32.174-.4.334-.08.16-.1.346-.04.52L2.302 13zm1.366-8.667h8V6.98l-4-1.313-4 1.313V4.333z" fill="#FFF" fill-rule="evenodd"/></svg>