<svg width="202" height="178" viewBox="0 0 202 178" xmlns="http://www.w3.org/2000/svg" fill-rule="evenodd">
  <path d="M25.5619649,43.3035789 L25.7876491,42.8145965 L29.6242807,45.3723509 L29.3985965,45.8237193 L25.5619649,43.3035789 Z M21.2363509,52.6318596 L21.4620351,52.1804912 L25.3362807,54.7006316 L25.1105965,55.189614 L21.2363509,52.6318596 Z M22.6656842,49.5098947 L22.8913684,49.0585263 L26.765614,51.5786667 L26.5399298,52.0676491 L22.6656842,49.5098947 Z M25.0729825,44.3191579 L25.2986667,43.8677895 L29.1352982,46.3879298 L28.909614,46.8769123 L25.0729825,44.3191579 Z M24.0950175,46.3879298 L24.3207018,45.9365614 L28.1949474,48.4567018 L27.9692632,48.9456842 L24.0950175,46.3879298 Z M15.5942456,65.1573333 L15.8199298,64.7059649 L19.6565614,67.2261053 L19.4684912,67.6774737 L15.5942456,65.1573333 Z M16.0832281,64.1041404 L16.2712982,63.6527719 L20.1455439,66.1729123 L19.9198596,66.6242807 L16.0832281,64.1041404 Z M16.5345965,63.0885614 L16.7602807,62.5995789 L20.5969123,65.1197193 L20.4088421,65.6087018 L16.5345965,63.0885614 Z M17.0235789,62.0353684 L17.2116491,61.546386 L21.0858947,64.1041404 L20.8602105,64.5555088 L17.0235789,62.0353684 Z M17.4749474,60.9821754 L17.7006316,60.530807 L21.5372632,63.0509474 L21.349193,63.5399298 L17.4749474,60.9821754 Z M17.9639298,59.9289825 L18.152,59.477614 L22.0262456,61.9977544 L21.8005614,62.4867368 L17.9639298,59.9289825 Z M18.9042807,57.8602105 L19.0923509,57.3712281 L22.9665965,59.9289825 L22.7409123,60.3803509 L18.9042807,57.8602105 Z M19.3556491,56.8070175 L19.5813333,56.3556491 L23.4179649,58.8757895 L23.2298947,59.3647719 L19.3556491,56.8070175 Z M20.296,54.7382456 L20.5216842,54.2492632 L24.3583158,56.8070175 L24.1702456,57.258386 L20.296,54.7382456 Z M18.4152982,58.9134035 L18.6409825,58.4244211 L22.477614,60.9821754 L22.2895439,61.4335439 L18.4152982,58.9134035 Z M21.7253333,51.6162807 L21.9510175,51.1272982 L25.7876491,53.6850526 L25.5995789,54.1364211 L21.7253333,51.6162807 Z M23.1546667,48.4943158 L23.3803509,48.0053333 L27.2169825,50.5630877 L27.0289123,51.0144561 L23.1546667,48.4943158 Z M26.0509474,42.250386 L26.2390175,41.7990175 L30.1132632,44.3567719 L29.8875789,44.8081404 L26.0509474,42.250386 Z M24.584,45.3723509 L24.8096842,44.8833684 L28.6463158,47.4411228 L28.4582456,47.8924912 L24.584,45.3723509 Z M26.9912982,40.181614 L27.2169825,39.7302456 L31.0912281,42.288 L30.8655439,42.7393684 L26.9912982,40.181614 Z M26.5023158,41.197193 L26.728,40.7458246 L30.6022456,43.3035789 L30.3765614,43.7549474 L26.5023158,41.197193 Z M19.8446316,55.7538246 L20.0327018,55.3024561 L23.9069474,57.8602105 L23.6812632,58.3115789 L19.8446316,55.7538246 Z M23.6436491,47.4411228 L23.8317193,46.9897544 L27.7059649,49.5098947 L27.4802807,49.9612632 L23.6436491,47.4411228 Z M20.7849825,53.6850526 L20.9730526,53.2336842 L24.8472982,55.7538246 L24.621614,56.205193 L20.7849825,53.6850526 Z M22.2143158,50.5630877 L22.402386,50.1117193 L26.2766316,52.6318596 L26.0509474,53.0832281 L22.2143158,50.5630877 Z M14.6915088,65.909614 L15.2557193,65.909614 L15.3309474,65.7215439 L18.9795088,68.1288421 L18.0767719,68.1288421 L14.6915088,65.909614 Z M31.5049825,41.3852632 L31.3169123,41.7990175 L27.4426667,39.2412632 L27.6307368,38.8275088 L31.5049825,41.3852632 Z M9.61361404,44.9585965 L9.23747368,44.0934737 L12.4722807,46.2374737 L12.8484211,47.1025965 L9.61361404,44.9585965 Z M7.92098246,41.1219649 L7.50722807,40.2568421 L10.7796491,42.4384561 L11.1557895,43.2659649 L7.92098246,41.1219649 Z M8.74849123,43.0402807 L8.37235088,42.2127719 L11.6447719,44.3567719 L12.0209123,45.1842807 L8.74849123,43.0402807 Z M11.3438596,48.7952281 L10.9301053,47.9301053 L14.1649123,50.0741053 L14.5410526,50.9392281 L11.3438596,48.7952281 Z M10.4787368,46.8769123 L10.1025965,46.0494035 L13.3374035,48.1934035 L13.7135439,49.0209123 L10.4787368,46.8769123 Z M15.2181053,52.3685614 L15.1052632,52.6318596 L12.2089825,50.7511579 L11.8328421,49.8860351 L15.0300351,51.9924211 L15.2181053,52.3685614 Z M13.0741053,52.6694737 L12.6979649,51.8043509 L14.8419649,53.2336842 L14.6162807,53.6850526 L13.0741053,52.6694737 Z M13.9392281,54.5877895 L13.5630877,53.7226667 L14.3529825,54.2492632 L14.1649123,54.7382456 L13.9392281,54.5877895 Z M6.00266667,38.4513684 L14.0896842,56.5061053 L22.2143158,38.4513684 L27.1041404,38.4513684 L14.8419649,65.2325614 L13.2621754,65.2325614 L1,38.4513684 L6.00266667,38.4513684 Z M40.5699649,52.3685614 L40.7956491,51.8795789 L44.6322807,54.3997193 L44.4065965,54.8887018 L40.5699649,52.3685614 Z M35.0407018,64.9316491 L35.2287719,64.4802807 L39.1030175,67.0004211 L38.8773333,67.4894035 L35.0407018,64.9316491 Z M35.4920702,63.9160702 L35.7177544,63.4270877 L39.554386,65.9472281 L39.3663158,66.4362105 L35.4920702,63.9160702 Z M35.9434386,62.8628772 L36.1691228,62.3738947 L40.0057544,64.8940351 L39.8176842,65.3830175 L35.9434386,62.8628772 Z M36.394807,61.8096842 L36.6204912,61.3207018 L40.4571228,63.8784561 L40.2690526,64.3298246 L36.394807,61.8096842 Z M36.8837895,60.7564912 L37.0718596,60.3051228 L37.1470877,60.3051228 L40.9461053,62.8252632 L40.7204211,63.2766316 L36.8837895,60.7564912 Z M33.9122807,65.5710877 L34.7774035,65.5710877 L34.7774035,65.5334737 L38.2002807,67.7903158 L37.2975439,67.7903158 L33.9122807,65.5710877 Z M38.2755088,60.3051228 L39.1782456,60.3051228 L42.5635088,62.5243509 L41.6231579,62.5243509 L38.2755088,60.3051228 Z M40.3066667,60.3051228 L41.2470175,60.3051228 L44.5946667,62.5243509 L43.6919298,62.5243509 L40.3066667,60.3051228 Z M42.3754386,60.3051228 L43.2781754,60.3051228 L46.6634386,62.5243509 L45.7230877,62.5243509 L42.3754386,60.3051228 Z M52.418386,65.5710877 L53.3211228,65.5710877 L56.706386,67.7903158 L55.7660351,67.7903158 L52.418386,65.5710877 Z M31.8811228,65.5710877 L32.7838596,65.5710877 L36.1691228,67.7903158 L35.2287719,67.7903158 L31.8811228,65.5710877 Z M48.5065263,62.5243509 L47.7918596,62.5243509 L44.4065965,60.3051228 L45.3469474,60.3051228 L48.4312982,62.3362807 L48.5065263,62.5243509 Z M52.6816842,57.6345263 L52.2679298,56.7317895 L55.4651228,58.8381754 L55.8788772,59.7409123 L52.6816842,57.6345263 Z M51.7789474,55.7162105 L51.365193,54.8134737 L54.562386,56.9198596 L54.9761404,57.8225965 L51.7789474,55.7162105 Z M54.4495439,65.5710877 L55.3522807,65.5710877 L58.7375439,67.7903158 L57.834807,67.7903158 L54.4495439,65.5710877 Z M44.2185263,52.8199298 C44.4191355,53.2713005 44.5445144,53.547134 44.5946667,53.6474386 L41.0213333,51.3153684 L41.2470175,50.826386 L44.2185263,52.8199298 Z M56.2926316,65.4206316 L55.8788772,64.5555088 L59.1136842,66.6618947 L59.5274386,67.5270175 L56.2926316,65.4206316 Z M49.0331228,49.810807 L48.6193684,48.9456842 L51.8917895,51.0896842 L52.3055439,51.954807 L49.0331228,49.810807 Z M54.4495439,61.5087719 L54.0734035,60.6436491 L57.3082105,62.7876491 L57.7219649,63.6527719 L54.4495439,61.5087719 Z M47.1900351,45.8989474 L46.7762807,44.9962105 L50.0487018,47.1778246 L50.4624561,48.0429474 L47.1900351,45.8989474 Z M45.3469474,41.9870877 L44.933193,41.0843509 L48.205614,43.2659649 L48.6193684,44.1310877 L45.3469474,41.9870877 Z M46.2872982,43.9430175 L45.8735439,43.0402807 L49.1459649,45.2218947 L49.5597193,46.0870175 L46.2872982,43.9430175 Z M49.9734737,51.7667368 L49.5597193,50.901614 L52.7945263,53.045614 L53.1706667,53.9107368 L49.9734737,51.7667368 Z M53.5844211,59.5904561 L53.1706667,58.7253333 L56.4054737,60.8317193 L56.781614,61.6968421 L53.5844211,59.5904561 Z M50.8762105,53.7226667 L50.4624561,52.8575439 L53.6972632,55.0015439 L54.0734035,55.8666667 L50.8762105,53.7226667 Z M48.130386,47.8548772 L47.7166316,46.9897544 L50.9890526,49.1337544 L51.365193,49.9988772 L48.130386,47.8548772 Z M55.3898947,63.4647018 L54.9761404,62.5995789 L58.2109474,64.7435789 L58.6247018,65.5710877 L55.3898947,63.4647018 Z M40.1185965,53.4217544 L40.3066667,52.9327719 L43.8047719,55.2272281 L42.8644211,55.2272281 L40.1185965,53.4217544 Z M44.0680702,39.2036491 L47.3404912,41.3476491 L47.7166316,42.1751579 L44.4442105,39.9935439 L44.0680702,39.2036491 Z M43.3534035,50.864 L43.7295439,51.7291228 L41.5103158,50.2621754 L41.698386,49.773193 L43.3534035,50.864 Z M40.8332632,55.2272281 L39.629614,54.4373333 L39.8552982,53.9859649 L41.773614,55.2272281 L40.8332632,55.2272281 Z M46.4753684,60.3051228 L47.3781053,60.3051228 L47.5661754,60.4555789 L47.9423158,61.2830877 L46.4753684,60.3051228 Z M42.5258947,48.9832982 L42.8644211,49.8484211 L41.9616842,49.2089825 L42.1497544,48.757614 L42.5258947,48.9832982 Z M39.2910877,55.2272281 L39.3663158,55.0391579 L39.7048421,55.2272281 L39.2910877,55.2272281 Z M50.312,64.8940351 L47.9799298,59.6280702 L36.6204912,59.6280702 L34.3260351,64.8940351 L29.4362105,64.8940351 L41.8488421,38.2256842 L42.9020351,38.2256842 L55.3146667,64.8940351 L50.312,64.8940351 Z M42.3002105,46.8016842 L38.2755088,55.9042807 L46.3249123,55.9042807 L42.3002105,46.8016842 Z M68.3667368,64.2169825 L68.3667368,63.6151579 L72.0905263,66.0600702 L72.0905263,66.6618947 L68.3667368,64.2169825 Z M68.3667368,62.8628772 L68.3667368,62.2610526 L72.0905263,64.7435789 L72.0905263,65.3077895 L68.3667368,62.8628772 Z M68.3667368,61.5087719 L68.3667368,60.9069474 L72.0905263,63.3894737 L72.0905263,63.9912982 L68.3667368,61.5087719 Z M68.3667368,60.1546667 L68.3667368,59.5528421 L72.0905263,62.0353684 L72.0905263,62.637193 L68.3667368,60.1546667 Z M68.3667368,58.8005614 L68.3667368,58.1987368 L72.0905263,60.6812632 L72.0905263,61.2830877 L68.3667368,58.8005614 Z M68.3667368,57.4464561 L68.3667368,56.8446316 L72.0905263,59.3271579 L72.0905263,59.9289825 L68.3667368,57.4464561 Z M68.3667368,56.0923509 L68.3667368,55.4905263 L72.0905263,57.9730526 L72.0905263,58.5748772 L68.3667368,56.0923509 Z M68.3667368,54.7382456 L68.3667368,54.1364211 L72.0905263,56.6189474 L72.0905263,57.2207719 L68.3667368,54.7382456 Z M68.3667368,53.3841404 L68.3667368,52.7823158 L72.0905263,55.2648421 L72.0905263,55.8666667 L68.3667368,53.3841404 Z M68.3667368,52.0300351 L68.3667368,51.4282105 L72.0905263,53.9107368 L72.0905263,54.5125614 L68.3667368,52.0300351 Z M89.9195789,41.3852632 L89.9195789,41.9870877 L86.1957895,39.5421754 L86.1957895,38.9403509 L88.7535439,40.5953684 L89.9195789,41.3852632 Z M86.1957895,46.1998596 L86.1957895,45.5980351 L89.9195789,48.0429474 L89.9195789,48.6447719 L86.1957895,46.1998596 Z M86.1957895,62.4491228 L86.1957895,61.8472982 L89.9195789,64.2922105 L89.9195789,64.8940351 L86.1957895,62.4491228 Z M86.1957895,61.0950175 L86.1957895,60.493193 L89.9195789,62.9381053 L89.9195789,63.5399298 L86.1957895,61.0950175 Z M86.1957895,59.7409123 L86.1957895,59.1390877 L89.9195789,61.584 L89.9195789,62.1858246 L86.1957895,59.7409123 Z M86.1957895,43.4916491 L86.1957895,42.8898246 L89.9195789,45.3347368 L89.9195789,45.9365614 L86.1957895,43.4916491 Z M86.1957895,58.386807 L86.1957895,57.7849825 L89.9195789,60.2298947 L89.9195789,60.8317193 L86.1957895,58.386807 Z M86.1957895,55.6785965 L86.1957895,55.0767719 L89.9195789,57.5216842 L89.9195789,58.1235088 L86.1957895,55.6785965 Z M86.1957895,44.8457544 L86.1957895,44.2439298 L89.9195789,46.6888421 L89.9195789,47.2906667 L86.1957895,44.8457544 Z M86.1957895,40.7834386 L86.1957895,40.181614 L89.9195789,42.6265263 L89.9195789,43.2283509 L86.1957895,40.7834386 Z M86.1957895,57.0327018 L86.1957895,56.4308772 L89.9195789,58.8757895 L89.9195789,59.477614 L86.1957895,57.0327018 Z M86.1957895,47.5539649 L86.1957895,46.9521404 L89.9195789,49.3970526 L89.9195789,49.9988772 L86.1957895,47.5539649 Z M86.1957895,48.9080702 L86.1957895,48.3062456 L89.9195789,50.7511579 L89.9195789,51.3529825 L86.1957895,48.9080702 Z M86.1957895,65.1197193 L86.1957895,64.5555088 L89.9195789,67.0004211 L89.9195789,67.5646316 L86.1957895,65.1197193 Z M86.1957895,51.6162807 L86.1957895,51.0144561 L89.9195789,53.4593684 L89.9195789,54.061193 L86.1957895,51.6162807 Z M86.1957895,50.2621754 L86.1957895,49.6603509 L89.9195789,52.1052632 L89.9195789,52.7070877 L86.1957895,50.2621754 Z M86.1957895,42.1375439 L86.1957895,41.5357193 L89.9195789,43.9806316 L89.9195789,44.5824561 L86.1957895,42.1375439 Z M86.1957895,63.8032281 L86.1957895,63.2014035 L89.9195789,65.6463158 L89.9195789,66.2105263 L86.1957895,63.8032281 Z M86.1957895,54.3244912 L86.1957895,53.7226667 L89.9195789,56.1675789 L89.9195789,56.7694035 L86.1957895,54.3244912 Z M86.1957895,52.970386 L86.1957895,52.3685614 L89.9195789,54.8134737 L89.9195789,55.4152982 L86.1957895,52.970386 Z M72.0905263,67.7903158 L71.714386,67.7903158 L68.3667368,65.5710877 L68.3667368,64.9692632 L72.0905263,67.4141754 L72.0905263,67.7903158 Z M66.2979649,65.5710877 L67.2383158,65.5710877 L70.5859649,67.7903158 L69.6832281,67.7903158 L66.2979649,65.5710877 Z M64.266807,65.5710877 L65.1695439,65.5710877 L68.554807,67.7903158 L67.6144561,67.7903158 L64.266807,65.5710877 Z M88.6407018,67.978386 L85.2930526,65.7591579 L85.9701053,65.7591579 L89.3553684,67.978386 L88.6407018,67.978386 Z M68.3667368,50.6759298 L68.3667368,50.1493333 L69.9089123,51.6915088 L68.3667368,50.6759298 Z M63.0255439,64.8940351 L63.0255439,38.3009123 L64.4924912,38.3009123 L80.8545965,55.3400702 L80.8545965,38.4513684 L85.5187368,38.4513684 L85.5187368,65.0821053 L84.2774737,65.0821053 L67.6896842,48.4943158 L67.6896842,64.8940351 L63.0255439,64.8940351 Z M96.5020351,64.8940351 L96.5020351,38.4513684 L113.691649,38.4513684 L113.691649,42.7393684 L101.166175,42.7393684 L101.166175,50.1493333 L112.525614,50.1493333 L112.525614,54.2868772 L101.166175,54.2868772 L101.166175,60.6060351 L113.691649,60.6060351 L113.691649,64.8940351 L96.5020351,64.8940351 Z M101.843228,55.4905263 L101.843228,54.9639298 L101.993684,54.9639298 L105.567018,57.333614 L105.567018,57.9354386 L101.843228,55.4905263 Z M101.843228,56.8446316 L101.843228,56.242807 L105.567018,58.6877193 L105.567018,59.2895439 L101.843228,56.8446316 Z M114.368702,63.728 L114.368702,63.1261754 L118.092491,65.5710877 L118.092491,66.1729123 L114.368702,63.728 Z M114.368702,62.3738947 L114.368702,61.7720702 L118.092491,64.2545965 L118.092491,64.8564211 L114.368702,62.3738947 Z M114.368702,42.0623158 L114.368702,41.4604912 L118.092491,43.9430175 L118.092491,44.5448421 L114.368702,42.0623158 Z M113.202667,53.4969825 L113.202667,52.8951579 L116.926456,55.3400702 L116.926456,55.9418947 L113.202667,53.4969825 Z M101.843228,46.0117895 L101.843228,45.4099649 L105.567018,47.8548772 L105.567018,48.4567018 L101.843228,46.0117895 Z M101.843228,44.6576842 L101.843228,44.0558596 L105.567018,46.5007719 L105.567018,47.1025965 L101.843228,44.6576842 Z M114.368702,40.7082105 L114.368702,40.106386 L118.092491,42.5889123 L118.092491,43.1907368 L114.368702,40.7082105 Z M114.368702,65.0821053 L114.368702,64.4802807 L118.092491,66.925193 L118.092491,67.5270175 L114.368702,65.0821053 Z M116.926456,57.1831579 L116.776,57.1831579 L113.202667,54.8510877 L113.202667,54.2492632 L116.926456,56.6941754 L116.926456,57.1831579 Z M118.092491,45.6356491 L117.716351,45.6356491 L114.368702,43.4164211 L114.368702,42.8145965 L118.092491,45.2971228 L118.092491,45.6356491 Z M105.567018,49.4722807 L105.040421,49.4722807 L101.843228,47.3658947 L101.843228,46.7640702 L105.567018,49.2089825 L105.567018,49.4722807 Z M118.092491,41.3852632 L118.092491,41.9494737 L114.368702,39.4669474 L114.368702,38.9027368 L118.092491,41.3852632 Z M107.222035,54.9639298 L108.162386,54.9639298 L111.510035,57.1831579 L110.569684,57.1831579 L107.222035,54.9639298 Z M98.6460351,65.5710877 L99.586386,65.5710877 L102.971649,67.7903158 L102.031298,67.7903158 L98.6460351,65.5710877 Z M105.567018,45.6356491 L105.567018,45.7484912 L102.031298,43.4164211 L102.971649,43.4164211 L106.319298,45.6356491 L105.567018,45.6356491 Z M104.10007,43.4164211 L105.002807,43.4164211 L108.38807,45.6356491 L107.447719,45.6356491 L104.10007,43.4164211 Z M108.952281,65.5710877 L109.855018,65.5710877 L113.240281,67.7903158 L112.29993,67.7903158 L108.952281,65.5710877 Z M106.131228,43.4164211 L107.071579,43.4164211 L110.419228,45.6356491 L109.516491,45.6356491 L106.131228,43.4164211 Z M103.122105,54.9639298 L104.024842,54.9639298 L107.410105,57.1831579 L106.469754,57.1831579 L103.122105,54.9639298 Z M106.883509,65.5710877 L107.786246,65.5710877 L111.171509,67.7903158 L110.231158,67.7903158 L106.883509,65.5710877 Z M110.231158,43.4164211 L111.171509,43.4164211 L114.519158,45.6356491 L113.616421,45.6356491 L110.231158,43.4164211 Z M110.983439,65.5710877 L111.923789,65.5710877 L115.271439,67.7903158 L114.368702,67.7903158 L110.983439,65.5710877 Z M102.783579,65.5710877 L103.686316,65.5710877 L107.071579,67.7903158 L106.131228,67.7903158 L102.783579,65.5710877 Z M113.052211,65.5710877 L113.954947,65.5710877 L117.340211,67.7903158 L116.39986,67.7903158 L113.052211,65.5710877 Z M100.714807,65.5710877 L101.655158,65.5710877 L105.002807,67.7903158 L104.10007,67.7903158 L100.714807,65.5710877 Z M104.814737,65.5710877 L105.755088,65.5710877 L109.102737,67.7903158 L108.2,67.7903158 L104.814737,65.5710877 Z M108.2,43.4164211 L109.102737,43.4164211 L112.488,45.6356491 L111.547649,45.6356491 L108.2,43.4164211 Z M109.290807,54.9639298 L110.193544,54.9639298 L113.578807,57.1831579 L112.638456,57.1831579 L109.290807,54.9639298 Z M105.153263,54.9639298 L106.093614,54.9639298 L109.441263,57.1831579 L108.538526,57.1831579 L105.153263,54.9639298 Z M111.321965,54.9639298 L112.262316,54.9639298 L115.609965,57.1831579 L114.707228,57.1831579 L111.321965,54.9639298 Z M116.926456,53.0832281 L116.926456,53.6098246 L113.202667,51.1649123 L113.202667,50.6007018 L116.926456,53.0832281 Z M112.29993,43.4164211 L113.202667,43.4164211 L116.58793,45.6356491 L115.685193,45.6356491 L112.29993,43.4164211 Z M113.202667,52.2933333 L113.202667,51.7667368 L116.926456,54.2116491 L116.926456,54.7382456 L113.202667,52.2933333 Z M101.843228,58.1987368 L101.843228,57.5969123 L105.416561,59.9289825 L104.476211,59.9289825 L101.843228,58.1987368 Z M101.843228,48.72 L101.843228,48.1181754 L103.912,49.4722807 L103.009263,49.4722807 L101.843228,48.72 Z M101.843228,58.9510175 L103.347789,59.9289825 L102.445053,59.9289825 L101.843228,59.5528421 L101.843228,58.9510175 Z M100.865263,67.7903158 L97.517614,65.5710877 L97.5552281,65.5710877 L100.902877,67.7903158 L100.865263,67.7903158 Z M139.795789,57.7473684 C139.795789,60.1045264 138.955751,61.9601336 137.275649,63.3142456 C135.595547,64.6683576 133.276038,65.3454035 130.317053,65.3454035 C127.307915,65.3454035 124.424201,64.5053651 121.665825,62.8252632 L123.283228,58.6124912 C125.640386,60.1922886 128.035122,60.9821754 130.467509,60.9821754 C131.947002,60.9821754 133.075411,60.6687283 133.852772,60.0418246 C134.630133,59.4149208 135.018807,58.6501098 135.018807,57.7473684 C135.018807,56.8195509 134.636401,56.035933 133.871579,55.3964912 C133.106756,54.7570494 131.570865,54.0110452 129.26386,53.1584561 C126.781321,52.2557148 125.00721,51.1962634 123.941474,49.9800702 C122.875737,48.763877 122.342877,47.328289 122.342877,45.6732632 C122.342877,43.5668667 123.145302,41.761411 124.750175,40.2568421 C126.355049,38.7522732 128.511565,38 131.219789,38 C134.003242,38 136.435592,38.6018185 138.516912,39.8054737 L137.012351,43.9430175 C134.905954,42.7644386 132.937506,42.1751579 131.106947,42.1751579 C129.777911,42.1751579 128.768612,42.494874 128.079018,43.1343158 C127.389423,43.7737576 127.044632,44.5824513 127.044632,45.5604211 C127.044632,46.387934 127.433306,47.1088624 128.210667,47.7232281 C128.988027,48.3375937 130.317043,48.9832949 132.197754,49.6603509 C135.056435,50.7637014 137.037421,51.9359938 138.140772,53.1772632 C139.244122,54.4185325 139.795789,55.9418857 139.795789,57.7473684 L139.795789,57.7473684 Z M131.671158,47.2154386 C131.621006,47.3658955 131.570854,47.5414259 131.520702,47.7420351 L127.721684,45.2595088 L127.834526,44.6952982 L131.671158,47.2154386 Z M139.156351,62.2610526 C139.181427,62.2359765 139.212772,62.1983628 139.250386,62.1482105 C139.288,62.0980582 139.325614,62.0416377 139.363228,61.9789474 C139.400842,61.916257 139.432187,61.8723744 139.457263,61.8472982 L143.293895,64.3674386 L143.030596,64.818807 L139.156351,62.2610526 Z M138.178386,42.6641404 L138.366456,42.1751579 L142.203088,44.6952982 C142.152935,44.8457551 142.090246,45.0087477 142.015018,45.1842807 L138.178386,42.6641404 Z M139.720561,61.2830877 L139.946246,60.7941053 L143.782877,63.3518596 L143.594807,63.8032281 L139.720561,61.2830877 Z M132.272982,46.2750877 C132.072373,46.5258492 131.97207,46.663766 131.97207,46.6888421 L128.097825,44.1310877 L128.436351,43.7549474 L132.272982,46.2750877 Z M141.789333,45.7861053 C141.789333,45.8111814 141.726644,45.9741739 141.601263,46.2750877 L137.802246,43.7549474 L137.952702,43.2659649 L141.789333,45.7861053 Z M138.479298,63.1637895 L138.817825,62.7876491 L142.654456,65.2701754 L142.31593,65.6463158 L138.479298,63.1637895 Z M144.083789,59.477614 C144.133942,59.7785278 144.159018,60.0042098 144.159018,60.1546667 L140.472842,57.7097544 C140.472842,57.4339167 140.460304,57.2207727 140.435228,57.0703158 L144.083789,59.477614 Z M144.046175,62.1858246 L143.970947,62.7124211 L140.134316,60.1922807 C140.184468,60.0919761 140.23462,59.9164457 140.284772,59.6656842 L144.046175,62.1858246 Z M137.614175,63.9536842 L137.990316,63.6151579 L141.826947,66.0976842 L141.413193,66.4362105 L137.614175,63.9536842 Z M135.357333,65.1573333 L135.921544,64.9316491 L139.682947,67.3765614 L139.081123,67.6022456 L135.357333,65.1573333 Z M133.250947,45.5604211 L132.761965,45.8613333 L128.962947,43.341193 L129.489544,43.1155088 L133.250947,45.5604211 Z M133.965614,65.6087018 L134.605053,65.4206316 L138.291228,67.8279298 C138.115695,67.8780821 137.877475,67.9282337 137.576561,67.978386 L133.965614,65.6087018 Z M142.616842,43.6421053 C142.591766,43.7424099 142.529077,43.8928645 142.428772,44.0934737 L138.59214,41.5733333 L138.742596,41.0843509 L142.616842,43.6421053 Z M140.397614,58.9886316 C140.397614,58.9384793 140.403883,58.8507141 140.416421,58.7253333 C140.428959,58.5999526 140.435228,58.4996495 140.435228,58.4244211 L144.196632,60.9069474 C144.196632,61.1577089 144.184094,61.3457772 144.159018,61.4711579 L140.397614,58.9886316 Z M136.560982,64.5931228 C136.636211,64.5680467 136.730245,64.5241641 136.843088,64.4614737 C136.95593,64.3987833 137.024889,64.3549007 137.049965,64.3298246 L140.848982,66.8123509 L140.36,67.0756491 L136.560982,64.5931228 Z M134.642667,45.1466667 C134.341753,45.196819 134.116071,45.2469705 133.965614,45.2971228 L130.354667,42.9274386 C130.65558,42.8772863 130.906338,42.8522105 131.106947,42.8522105 L131.182175,42.8522105 L134.642667,45.1466667 Z M132.385825,65.872 L133.138105,65.7967719 L136.673825,68.1288421 L135.88393,68.2040702 L132.385825,65.872 Z M143.481965,57.7473684 C143.532117,57.847673 143.657496,58.1235065 143.858105,58.5748772 L140.36,56.2804211 L140.209544,55.5657544 L143.481965,57.7473684 Z M130.505123,66.0224561 C130.605427,66.0224561 130.755882,66.0161872 130.956491,66.0036491 C131.1571,65.991111 131.295017,65.9848421 131.370246,65.9848421 L134.793123,68.2416842 C134.692818,68.2416842 134.536095,68.2354153 134.322947,68.2228772 C134.1098,68.2103391 133.953077,68.2040702 133.852772,68.2040702 L130.505123,66.0224561 Z M142.955368,42.7017544 C142.905216,42.9023636 142.855065,43.0402803 142.804912,43.1155088 L138.930667,40.5577544 L139.081123,40.181614 L142.955368,42.7017544 Z M131.445474,48.682386 C131.395321,48.6573098 130.881268,48.4441657 129.903298,48.0429474 L128.361123,47.0273684 C128.060209,46.7013785 127.859603,46.3628556 127.759298,46.0117895 L131.445474,48.4567018 L131.445474,48.682386 Z M128.210667,65.834386 C128.461428,65.8845383 128.837565,65.9346898 129.339088,65.9848421 L132.461053,68.016 C131.859225,67.9156954 131.407861,67.8279302 131.106947,67.7527018 L128.210667,65.834386 Z M136.749053,45.1466667 C136.24753,45.0965144 135.896469,45.0714386 135.69586,45.0714386 L132.573895,43.0402807 C133.12557,43.1656614 133.677237,43.3161161 134.228912,43.4916491 L136.749053,45.1466667 Z M140.435228,46.2750877 C139.783248,45.9741739 139.093664,45.7108783 138.366456,45.485193 L137.388491,44.8457544 L137.576561,44.3567719 L140.435228,46.2750877 Z M125.54007,65.2325614 L126.593263,65.5334737 L128.850105,67.0380351 C127.922288,66.6618929 127.082249,66.2356047 126.329965,65.7591579 L125.54007,65.2325614 Z M140.660912,54.8134737 C141.287816,55.2397682 141.877097,55.7287458 142.428772,56.2804211 L139.871018,54.5877895 C139.845941,54.5627133 139.827135,54.5250997 139.814596,54.4749474 C139.802058,54.4247951 139.783252,54.3746435 139.758175,54.3244912 C139.733099,54.2743389 139.708024,54.2241874 139.682947,54.1740351 L140.660912,54.8134737 Z M164.959579,57.7473684 C164.959579,60.1045264 164.119541,61.9601336 162.439439,63.3142456 C160.759337,64.6683576 158.439828,65.3454035 155.480842,65.3454035 C152.471704,65.3454035 149.58799,64.5053651 146.829614,62.8252632 L148.447018,58.6124912 C150.804176,60.1922886 153.198912,60.9821754 155.631298,60.9821754 C157.110791,60.9821754 158.239201,60.6687283 159.016561,60.0418246 C159.793922,59.4149208 160.182596,58.6501098 160.182596,57.7473684 C160.182596,56.8195509 159.800191,56.035933 159.035368,55.3964912 C158.270546,54.7570494 156.734655,54.0110452 154.427649,53.1584561 C151.94511,52.2557148 150.170999,51.1962634 149.105263,49.9800702 C148.039527,48.763877 147.506667,47.328289 147.506667,45.6732632 C147.506667,43.5668667 148.309091,41.761411 149.913965,40.2568421 C151.518838,38.7522732 153.675355,38 156.383579,38 C159.167031,38 161.599381,38.6018185 163.680702,39.8054737 L162.17614,43.9430175 C160.069744,42.7644386 158.101296,42.1751579 156.270737,42.1751579 C154.941701,42.1751579 153.932401,42.494874 153.242807,43.1343158 C152.553213,43.7737576 152.208421,44.5824513 152.208421,45.5604211 C152.208421,46.387934 152.597096,47.1088624 153.374456,47.7232281 C154.151817,48.3375937 155.480833,48.9832949 157.361544,49.6603509 C160.220225,50.7637014 162.201211,51.9359938 163.304561,53.1772632 C164.407912,54.4185325 164.959579,55.9418857 164.959579,57.7473684 L164.959579,57.7473684 Z M156.834947,47.2154386 C156.784795,47.3658955 156.734644,47.5414259 156.684491,47.7420351 L152.885474,45.2595088 L152.998316,44.6952982 L156.834947,47.2154386 Z M164.32014,62.2610526 C164.345216,62.2359765 164.376561,62.1983628 164.414175,62.1482105 C164.45179,62.0980582 164.489403,62.0416377 164.527018,61.9789474 C164.564632,61.916257 164.595976,61.8723744 164.621053,61.8472982 L168.457684,64.3674386 L168.194386,64.818807 L164.32014,62.2610526 Z M163.342175,42.6641404 L163.530246,42.1751579 L167.366877,44.6952982 C167.316725,44.8457551 167.254035,45.0087477 167.178807,45.1842807 L163.342175,42.6641404 Z M164.884351,61.2830877 L165.110035,60.7941053 L168.946667,63.3518596 L168.758596,63.8032281 L164.884351,61.2830877 Z M157.436772,46.2750877 C157.236163,46.5258492 157.13586,46.663766 157.13586,46.6888421 L153.261614,44.1310877 L153.60014,43.7549474 L157.436772,46.2750877 Z M166.953123,45.7861053 C166.953123,45.8111814 166.890433,45.9741739 166.765053,46.2750877 L162.966035,43.7549474 L163.116491,43.2659649 L166.953123,45.7861053 Z M163.643088,63.1637895 L163.981614,62.7876491 L167.818246,65.2701754 L167.479719,65.6463158 L163.643088,63.1637895 Z M169.247579,59.477614 C169.297731,59.7785278 169.322807,60.0042098 169.322807,60.1546667 L165.636632,57.7097544 C165.636632,57.4339167 165.624094,57.2207727 165.599018,57.0703158 L169.247579,59.477614 Z M169.209965,62.1858246 L169.134737,62.7124211 L165.298105,60.1922807 C165.348258,60.0919761 165.398409,59.9164457 165.448561,59.6656842 L169.209965,62.1858246 Z M162.777965,63.9536842 L163.154105,63.6151579 L166.990737,66.0976842 L166.576982,66.4362105 L162.777965,63.9536842 Z M160.521123,65.1573333 L161.085333,64.9316491 L164.846737,67.3765614 L164.244912,67.6022456 L160.521123,65.1573333 Z M158.414737,45.5604211 L157.925754,45.8613333 L154.126737,43.341193 L154.653333,43.1155088 L158.414737,45.5604211 Z M159.129404,65.6087018 L159.768842,65.4206316 L163.455018,67.8279298 C163.279485,67.8780821 163.041265,67.9282337 162.740351,67.978386 L159.129404,65.6087018 Z M167.780632,43.6421053 C167.755555,43.7424099 167.692866,43.8928645 167.592561,44.0934737 L163.75593,41.5733333 L163.906386,41.0843509 L167.780632,43.6421053 Z M165.561404,58.9886316 C165.561404,58.9384793 165.567672,58.8507141 165.580211,58.7253333 C165.592749,58.5999526 165.599018,58.4996495 165.599018,58.4244211 L169.360421,60.9069474 C169.360421,61.1577089 169.347883,61.3457772 169.322807,61.4711579 L165.561404,58.9886316 Z M161.724772,64.5931228 C161.8,64.5680467 161.894035,64.5241641 162.006877,64.4614737 C162.11972,64.3987833 162.188678,64.3549007 162.213754,64.3298246 L166.012772,66.8123509 L165.523789,67.0756491 L161.724772,64.5931228 Z M159.806456,45.1466667 C159.505542,45.196819 159.27986,45.2469705 159.129404,45.2971228 L155.518456,42.9274386 C155.81937,42.8772863 156.070128,42.8522105 156.270737,42.8522105 L156.345965,42.8522105 L159.806456,45.1466667 Z M157.549614,65.872 L158.301895,65.7967719 L161.837614,68.1288421 L161.047719,68.2040702 L157.549614,65.872 Z M168.645754,57.7473684 C168.695907,57.847673 168.821286,58.1235065 169.021895,58.5748772 L165.523789,56.2804211 L165.373333,55.5657544 L168.645754,57.7473684 Z M155.668912,66.0224561 C155.769217,66.0224561 155.919672,66.0161872 156.120281,66.0036491 C156.32089,65.991111 156.458807,65.9848421 156.534035,65.9848421 L159.956912,68.2416842 C159.856608,68.2416842 159.699884,68.2354153 159.486737,68.2228772 C159.27359,68.2103391 159.116866,68.2040702 159.016561,68.2040702 L155.668912,66.0224561 Z M168.119158,42.7017544 C168.069006,42.9023636 168.018854,43.0402803 167.968702,43.1155088 L164.094456,40.5577544 L164.244912,40.181614 L168.119158,42.7017544 Z M156.609263,48.682386 C156.559111,48.6573098 156.045058,48.4441657 155.067088,48.0429474 L153.524912,47.0273684 C153.223998,46.7013785 153.023392,46.3628556 152.923088,46.0117895 L156.609263,48.4567018 L156.609263,48.682386 Z M153.374456,65.834386 C153.625218,65.8845383 154.001354,65.9346898 154.502877,65.9848421 L157.624842,68.016 C157.023015,67.9156954 156.571651,67.8279302 156.270737,67.7527018 L153.374456,65.834386 Z M161.912842,45.1466667 C161.411319,45.0965144 161.060258,45.0714386 160.859649,45.0714386 L157.737684,43.0402807 C158.289359,43.1656614 158.841026,43.3161161 159.392702,43.4916491 L161.912842,45.1466667 Z M165.599018,46.2750877 C164.947038,45.9741739 164.257454,45.7108783 163.530246,45.485193 L162.552281,44.8457544 L162.740351,44.3567719 L165.599018,46.2750877 Z M150.70386,65.2325614 L151.757053,65.5334737 L154.013895,67.0380351 C153.086077,66.6618929 152.246039,66.2356047 151.493754,65.7591579 L150.70386,65.2325614 Z M165.824702,54.8134737 C166.451605,55.2397682 167.040886,55.7287458 167.592561,56.2804211 L165.034807,54.5877895 C165.009731,54.5627133 164.990924,54.5250997 164.978386,54.4749474 C164.965848,54.4247951 164.947041,54.3746435 164.921965,54.3244912 L164.846737,54.1740351 L165.824702,54.8134737 Z M181.359298,52.3685614 L181.584982,51.8795789 L185.421614,54.3997193 L185.19593,54.8887018 L181.359298,52.3685614 Z M175.830035,64.9316491 L176.018105,64.4802807 L179.892351,67.0004211 L179.666667,67.4894035 L175.830035,64.9316491 Z M176.281404,63.9160702 L176.507088,63.4270877 L180.343719,65.9472281 L180.155649,66.4362105 L176.281404,63.9160702 Z M176.732772,62.8628772 L176.958456,62.3738947 L180.795088,64.8940351 L180.607018,65.3830175 L176.732772,62.8628772 Z M177.18414,61.8096842 L177.409825,61.3207018 L181.246456,63.8784561 L181.058386,64.3298246 L177.18414,61.8096842 Z M177.673123,60.7564912 L177.861193,60.3051228 L177.936421,60.3051228 L181.735439,62.8252632 L181.509754,63.2766316 L177.673123,60.7564912 Z M174.701614,65.5710877 L175.566737,65.5710877 L175.566737,65.5334737 L178.989614,67.7903158 L178.086877,67.7903158 L174.701614,65.5710877 Z M179.064842,60.3051228 L179.967579,60.3051228 L183.352842,62.5243509 L182.412491,62.5243509 L179.064842,60.3051228 Z M181.096,60.3051228 L182.036351,60.3051228 L185.384,62.5243509 L184.481263,62.5243509 L181.096,60.3051228 Z M183.164772,60.3051228 L184.067509,60.3051228 L187.452772,62.5243509 L186.512421,62.5243509 L183.164772,60.3051228 Z M193.207719,65.5710877 L194.110456,65.5710877 L197.495719,67.7903158 L196.555368,67.7903158 L193.207719,65.5710877 Z M172.670456,65.5710877 L173.573193,65.5710877 L176.958456,67.7903158 L176.018105,67.7903158 L172.670456,65.5710877 Z M189.29586,62.5243509 L188.581193,62.5243509 L185.19593,60.3051228 L186.136281,60.3051228 L189.220632,62.3362807 L189.29586,62.5243509 Z M193.471018,57.6345263 L193.057263,56.7317895 L196.254456,58.8381754 L196.668211,59.7409123 L193.471018,57.6345263 Z M192.568281,55.7162105 L192.154526,54.8134737 L195.351719,56.9198596 L195.765474,57.8225965 L192.568281,55.7162105 Z M195.238877,65.5710877 L196.141614,65.5710877 L199.526877,67.7903158 L198.62414,67.7903158 L195.238877,65.5710877 Z M185.00786,52.8199298 C185.208469,53.2713005 185.333848,53.547134 185.384,53.6474386 L181.810667,51.3153684 L182.036351,50.826386 L185.00786,52.8199298 Z M197.081965,65.4206316 L196.668211,64.5555088 L199.903018,66.6618947 L200.316772,67.5270175 L197.081965,65.4206316 Z M189.822456,49.810807 L189.408702,48.9456842 L192.681123,51.0896842 L193.094877,51.954807 L189.822456,49.810807 Z M195.238877,61.5087719 L194.862737,60.6436491 L198.097544,62.7876491 L198.511298,63.6527719 L195.238877,61.5087719 Z M187.979368,45.8989474 L187.565614,44.9962105 L190.838035,47.1778246 L191.251789,48.0429474 L187.979368,45.8989474 Z M186.136281,41.9870877 L185.722526,41.0843509 L188.994947,43.2659649 L189.408702,44.1310877 L186.136281,41.9870877 Z M187.076632,43.9430175 L186.662877,43.0402807 L189.935298,45.2218947 L190.349053,46.0870175 L187.076632,43.9430175 Z M190.762807,51.7667368 L190.349053,50.901614 L193.58386,53.045614 L193.96,53.9107368 L190.762807,51.7667368 Z M194.373754,59.5904561 L193.96,58.7253333 L197.194807,60.8317193 L197.570947,61.6968421 L194.373754,59.5904561 Z M191.665544,53.7226667 L191.251789,52.8575439 L194.486596,55.0015439 L194.862737,55.8666667 L191.665544,53.7226667 Z M188.919719,47.8548772 L188.505965,46.9897544 L191.778386,49.1337544 L192.154526,49.9988772 L188.919719,47.8548772 Z M196.179228,63.4647018 L195.765474,62.5995789 L199.000281,64.7435789 L199.414035,65.5710877 L196.179228,63.4647018 Z M180.90793,53.4217544 L181.096,52.9327719 L184.594105,55.2272281 L183.653754,55.2272281 L180.90793,53.4217544 Z M184.857404,39.2036491 L188.129825,41.3476491 L188.505965,42.1751579 L185.233544,39.9935439 L184.857404,39.2036491 Z M184.142737,50.864 L184.518877,51.7291228 L182.299649,50.2621754 L182.487719,49.773193 L184.142737,50.864 Z M181.622596,55.2272281 L180.418947,54.4373333 L180.644632,53.9859649 L182.562947,55.2272281 L181.622596,55.2272281 Z M187.264702,60.3051228 L188.167439,60.3051228 L188.355509,60.4555789 L188.731649,61.2830877 L187.264702,60.3051228 Z M183.315228,48.9832982 L183.653754,49.8484211 L182.751018,49.2089825 L182.939088,48.757614 L183.315228,48.9832982 Z M180.080421,55.2272281 L180.155649,55.0391579 L180.494175,55.2272281 L180.080421,55.2272281 Z M191.101333,64.8940351 L188.769263,59.6280702 L177.409825,59.6280702 L175.115368,64.8940351 L170.225544,64.8940351 L182.638175,38.2256842 L183.691368,38.2256842 L196.104,64.8940351 L191.101333,64.8940351 Z M183.089544,46.8016842 L179.064842,55.9042807 L187.114246,55.9042807 L183.089544,46.8016842 Z M61.8783158,102.094316 L61.9911579,101.567719 L65.7901754,104.050246 L65.6773333,104.614456 L61.8783158,102.094316 Z M65.5268772,105.253895 L65.3764211,105.742877 L61.5397895,103.222737 C61.5648656,103.147508 61.5962103,103.059743 61.6338246,102.959439 C61.6714388,102.859134 61.6902456,102.783907 61.6902456,102.733754 L65.5268772,105.253895 Z M64.1727719,108.413474 L63.8718596,108.827228 L60.0352281,106.269474 L60.2985263,105.855719 L64.1727719,108.413474 Z M65.1507368,106.382316 C65.1256607,106.48262 65.0629713,106.633075 64.9626667,106.833684 L61.1260351,104.313544 L61.3141053,103.824561 L65.1507368,106.382316 Z M60.5994386,105.329123 L60.8251228,104.877754 L64.6993684,107.435509 L64.4736842,107.849263 L60.5994386,105.329123 Z M63.5333333,109.353825 L63.2324211,109.729965 L59.3581754,107.209825 L59.6590877,106.79607 L63.5333333,109.353825 Z M56.4995088,114.168421 C56.3490519,114.193497 56.1233699,114.256187 55.8224561,114.356491 L52.1738947,111.911579 C52.3494278,111.886503 52.550034,111.823813 52.7757193,111.723509 L56.4995088,114.168421 Z M59.0196491,113.115228 C58.9193445,113.190457 58.7438141,113.278222 58.4930526,113.378526 L54.7316491,110.933614 L55.2582456,110.670316 L59.0196491,113.115228 Z M42.8832281,90.4339649 L43.0712982,90.4339649 L46.6070175,92.7660351 L46.6070175,93.3678596 L42.8832281,90.9229474 L42.8832281,90.4339649 Z M60.1104561,112.513404 L59.6590877,112.776702 L55.8600702,110.294175 C55.9603748,110.244023 56.1108294,110.14372 56.3114386,109.993263 L60.1104561,112.513404 Z M65.9782456,102.808982 L65.9030175,103.373193 L62.104,100.890667 C62.1541523,100.639905 62.1792281,100.451837 62.1792281,100.326456 L65.9782456,102.808982 Z M61.9911579,111.046456 L61.6150175,111.384982 L57.778386,108.864842 L58.1545263,108.526316 L61.9911579,111.046456 Z M42.8832281,96.3393684 L42.8832281,95.7375439 L46.6070175,98.1824561 L46.6070175,98.7842807 L42.8832281,96.3393684 Z M42.8832281,93.6311579 L42.8832281,93.0293333 L46.6070175,95.4742456 L46.6070175,96.0760702 L42.8832281,93.6311579 Z M42.8832281,94.9852632 L42.8832281,94.3834386 L46.6070175,96.8283509 L46.6070175,97.4301754 L42.8832281,94.9852632 Z M42.8832281,100.401684 L42.8832281,99.7998596 L46.6070175,102.244772 L46.6070175,102.846596 L42.8832281,100.401684 Z M42.8832281,92.2770526 L42.8832281,91.6752281 L46.6070175,94.1201404 L46.6070175,94.7219649 L42.8832281,92.2770526 Z M42.8832281,103.109895 L42.8832281,102.50807 L46.6070175,104.952982 L46.6070175,105.554807 L42.8832281,103.109895 Z M42.8832281,99.0475789 L42.8832281,98.4457544 L46.6070175,100.890667 L46.6070175,101.492491 L42.8832281,99.0475789 Z M42.8832281,101.755789 L42.8832281,101.153965 L46.6070175,103.598877 L46.6070175,104.200702 L42.8832281,101.755789 Z M42.8832281,97.6934737 L42.8832281,97.0916491 L46.6070175,99.5365614 L46.6070175,100.138386 L42.8832281,97.6934737 Z M42.8832281,104.464 L42.8832281,103.862175 L46.6070175,106.307088 L46.6070175,106.908912 L42.8832281,104.464 Z M62.7810526,110.218947 L62.4425263,110.595088 L58.6058947,108.037333 L58.9444211,107.698807 L62.7810526,110.218947 Z M61.0884211,111.836351 L60.6746667,112.099649 L56.8380351,109.617123 L57.2517895,109.278596 L61.0884211,111.836351 Z M66.0158596,101.680561 C66.0158596,101.730714 66.0095907,101.799672 65.9970526,101.887439 C65.9845146,101.975205 65.9782456,102.044163 65.9782456,102.094316 L62.2544561,99.6117895 L62.2544561,99.0475789 L66.0158596,101.492491 L66.0158596,101.680561 Z M65.9030175,100.063158 L65.9782456,100.702596 L62.2920702,98.2952982 C62.2920702,98.0194606 62.2795323,97.8063165 62.2544561,97.6558596 L65.9030175,100.063158 Z M65.6397193,98.5585965 C65.6898716,98.7341295 65.7400231,98.9723494 65.7901754,99.2732632 L62.1792281,96.8659649 L62.066386,96.1889123 L65.6397193,98.5585965 Z M57.816,113.679439 L57.2517895,113.905123 L53.528,111.460211 L54.0545965,111.234526 L57.816,113.679439 Z M54.9573333,114.506947 L54.2426667,114.619789 L50.6693333,112.287719 L51.346386,112.137263 L54.9573333,114.506947 Z M53.2647018,114.732632 C53.0891687,114.757708 52.8007973,114.770246 52.3995789,114.770246 L48.9767018,112.513404 C49.1522348,112.513404 49.4155304,112.488328 49.7665965,112.438175 L53.2647018,114.732632 Z M42.8832281,112.588632 L43.8235789,112.588632 L47.2088421,114.80786 L46.2684912,114.80786 L42.8832281,112.588632 Z M65.1131228,96.8659649 C65.1883513,97.0164218 65.2761165,97.2671795 65.3764211,97.6182456 L61.9159298,95.3237895 L61.6902456,94.6091228 L65.1131228,96.8659649 Z M47.0207719,112.588632 L47.4721404,112.588632 C47.5222926,112.588632 47.59752,112.582363 47.6978246,112.569825 C47.7981292,112.557286 47.8733565,112.551018 47.9235088,112.551018 L51.3087719,114.80786 L50.3684211,114.80786 L47.0207719,112.588632 Z M46.2684912,90.4339649 L47.1712281,90.4339649 L50.5564912,92.653193 L49.6161404,92.653193 L46.2684912,90.4339649 Z M44.1997193,90.4339649 L45.1400702,90.4339649 L48.4877193,92.653193 L47.5849825,92.653193 L44.1997193,90.4339649 Z M40.8520702,112.588632 L41.754807,112.588632 L45.1400702,114.80786 L44.1997193,114.80786 L40.8520702,112.588632 Z M44.952,112.588632 L45.8923509,112.588632 L49.24,114.80786 L48.3372632,114.80786 L44.952,112.588632 Z M38.7832982,112.588632 L39.7236491,112.588632 L43.0712982,114.80786 L42.1685614,114.80786 L38.7832982,112.588632 Z M64.0975439,94.834807 L64.6617544,95.8127719 L61.3517193,93.6311579 C61.1761863,93.1797872 61.0633453,92.9039537 61.013193,92.8036491 L64.0975439,94.834807 Z M52.0234386,92.653193 L51.6849123,92.653193 L48.3748772,90.4715789 C48.6005625,90.4966551 49.0017749,90.5593445 49.5785263,90.6596491 L52.6252632,92.690807 C52.4748063,92.6657309 52.2742001,92.653193 52.0234386,92.653193 L52.0234386,92.653193 Z M60.9379649,91.4119298 C61.790554,92.0137574 62.5052135,92.6782654 63.0819649,93.4054737 L60.4113684,91.637614 C60.33614,91.4871571 60.110458,91.1360963 59.7343158,90.5844211 L59.8847719,90.6972632 L60.9379649,91.4119298 Z M44.6134737,106.946526 L42.8832281,105.818105 L42.8832281,105.216281 L45.5162105,106.946526 L44.6134737,106.946526 Z M42.8832281,106.946526 L42.8832281,106.570386 L43.4850526,106.946526 L42.8832281,106.946526 Z M37.5044211,111.911579 L37.5044211,85.4689123 L47.4721404,85.4689123 C51.5846287,85.4689123 54.9698581,86.710163 57.6279298,89.1927018 C60.2860016,91.6752405 61.6150175,94.8347878 61.6150175,98.6714386 C61.6150175,102.457937 60.2671948,105.611215 57.5715088,108.131368 C54.8758228,110.651521 51.5094003,111.911579 47.4721404,111.911579 L37.5044211,111.911579 Z M47.5097544,89.7569123 L42.2061754,89.7569123 L42.2061754,107.623579 L47.5097544,107.623579 C50.0925977,107.623579 52.2553831,106.783541 53.9981754,105.103439 C55.7409678,103.423337 56.6123509,101.304434 56.6123509,98.7466667 C56.6123509,96.1387472 55.7597746,93.9884997 54.0545965,92.2958596 C52.3494184,90.6032196 50.1678262,89.7569123 47.5097544,89.7569123 L47.5097544,89.7569123 Z M78.7670175,99.3861053 L78.9927018,98.8971228 L82.8293333,101.417263 L82.6036491,101.906246 L78.7670175,99.3861053 Z M73.2377544,111.949193 L73.4258246,111.497825 L77.3000702,114.017965 L77.074386,114.506947 L73.2377544,111.949193 Z M73.6891228,110.933614 L73.914807,110.444632 L77.7514386,112.964772 L77.5633684,113.453754 L73.6891228,110.933614 Z M74.1404912,109.880421 L74.3661754,109.391439 L78.202807,111.911579 L78.0147368,112.400561 L74.1404912,109.880421 Z M74.5918596,108.827228 L74.8175439,108.338246 L78.6541754,110.896 L78.4661053,111.347368 L74.5918596,108.827228 Z M75.0808421,107.774035 L75.2689123,107.322667 L75.3441404,107.322667 L79.1431579,109.842807 L78.9174737,110.294175 L75.0808421,107.774035 Z M72.1093333,112.588632 L72.9744561,112.588632 L72.9744561,112.551018 L76.3973333,114.80786 L75.4945965,114.80786 L72.1093333,112.588632 Z M76.4725614,107.322667 L77.3752982,107.322667 L80.7605614,109.541895 L79.8202105,109.541895 L76.4725614,107.322667 Z M78.5037193,107.322667 L79.4440702,107.322667 L82.7917193,109.541895 L81.8889825,109.541895 L78.5037193,107.322667 Z M80.5724912,107.322667 L81.4752281,107.322667 L84.8604912,109.541895 L83.9201404,109.541895 L80.5724912,107.322667 Z M90.6154386,112.588632 L91.5181754,112.588632 L94.9034386,114.80786 L93.9630877,114.80786 L90.6154386,112.588632 Z M70.0781754,112.588632 L70.9809123,112.588632 L74.3661754,114.80786 L73.4258246,114.80786 L70.0781754,112.588632 Z M86.7035789,109.541895 L85.9889123,109.541895 L82.6036491,107.322667 L83.544,107.322667 L86.6283509,109.353825 L86.7035789,109.541895 Z M90.8787368,104.65207 L90.4649825,103.749333 L93.6621754,105.855719 L94.0759298,106.758456 L90.8787368,104.65207 Z M89.976,102.733754 L89.5622456,101.831018 L92.7594386,103.937404 L93.173193,104.84014 L89.976,102.733754 Z M92.6465965,112.588632 L93.5493333,112.588632 L96.9345965,114.80786 L96.0318596,114.80786 L92.6465965,112.588632 Z M82.4155789,99.8374737 C82.6161881,100.288844 82.741567,100.564678 82.7917193,100.664982 L79.218386,98.3329123 L79.4440702,97.8439298 L82.4155789,99.8374737 Z M94.4896842,112.438175 L94.0759298,111.573053 L97.3107368,113.679439 L97.7244912,114.544561 L94.4896842,112.438175 Z M87.2301754,96.8283509 L86.8164211,95.9632281 L90.0888421,98.1072281 L90.5025965,98.9723509 L87.2301754,96.8283509 Z M92.6465965,108.526316 L92.2704561,107.661193 L95.5052632,109.805193 L95.9190175,110.670316 L92.6465965,108.526316 Z M85.3870877,92.9164912 L84.9733333,92.0137544 L88.2457544,94.1953684 L88.6595088,95.0604912 L85.3870877,92.9164912 Z M83.544,89.0046316 L83.1302456,88.1018947 L86.4026667,90.2835088 L86.8164211,91.1486316 L83.544,89.0046316 Z M84.4843509,90.9605614 L84.0705965,90.0578246 L87.3430175,92.2394386 L87.7567719,93.1045614 L84.4843509,90.9605614 Z M88.1705263,98.7842807 L87.7567719,97.9191579 L90.9915789,100.063158 L91.3677193,100.928281 L88.1705263,98.7842807 Z M91.7814737,106.608 L91.3677193,105.742877 L94.6025263,107.849263 L94.9786667,108.714386 L91.7814737,106.608 Z M89.0732632,100.740211 L88.6595088,99.8750877 L91.8943158,102.019088 L92.2704561,102.884211 L89.0732632,100.740211 Z M86.3274386,94.8724211 L85.9136842,94.0072982 L89.1861053,96.1512982 L89.5622456,97.0164211 L86.3274386,94.8724211 Z M93.5869474,110.482246 L93.173193,109.617123 L96.408,111.761123 L96.8217544,112.588632 L93.5869474,110.482246 Z M78.3156491,100.439298 L78.5037193,99.9503158 L82.0018246,102.244772 L81.0614737,102.244772 L78.3156491,100.439298 Z M82.2651228,86.221193 L85.5375439,88.365193 L85.9136842,89.1927018 L82.6412632,87.0110877 L82.2651228,86.221193 Z M81.5504561,97.8815439 L81.9265965,98.7466667 L79.7073684,97.2797193 L79.8954386,96.7907368 L81.5504561,97.8815439 Z M79.0303158,102.244772 L77.8266667,101.454877 L78.0523509,101.003509 L79.9706667,102.244772 L79.0303158,102.244772 Z M84.6724211,107.322667 L85.5751579,107.322667 L85.7632281,107.473123 L86.1393684,108.300632 L84.6724211,107.322667 Z M80.7229474,96.0008421 L81.0614737,96.8659649 L80.1587368,96.2265263 L80.346807,95.7751579 L80.7229474,96.0008421 Z M77.4881404,102.244772 L77.5633684,102.056702 L77.9018947,102.244772 L77.4881404,102.244772 Z M88.5090526,111.911579 L86.1769825,106.645614 L74.8175439,106.645614 L72.5230877,111.911579 L67.6332632,111.911579 L80.0458947,85.2432281 L81.0990877,85.2432281 L93.5117193,111.911579 L88.5090526,111.911579 Z M80.4972632,93.8192281 L76.4725614,102.921825 L84.5219649,102.921825 L80.4972632,93.8192281 Z M106.563789,111.234526 L106.563789,110.632702 L110.287579,113.077614 L110.287579,113.679439 L106.563789,111.234526 Z M106.563789,109.880421 L106.563789,109.278596 L110.287579,111.761123 L110.287579,112.325333 L106.563789,109.880421 Z M106.563789,108.526316 L106.563789,107.924491 L110.287579,110.407018 L110.287579,111.008842 L106.563789,108.526316 Z M106.563789,107.172211 L106.563789,106.570386 L110.287579,109.052912 L110.287579,109.654737 L106.563789,107.172211 Z M106.563789,105.818105 L106.563789,105.216281 L110.287579,107.698807 L110.287579,108.300632 L106.563789,105.818105 Z M106.563789,104.464 L106.563789,103.862175 L110.287579,106.344702 L110.287579,106.946526 L106.563789,104.464 Z M106.563789,103.109895 L106.563789,102.50807 L110.287579,104.990596 L110.287579,105.592421 L106.563789,103.109895 Z M106.563789,101.755789 L106.563789,101.153965 L110.287579,103.636491 L110.287579,104.238316 L106.563789,101.755789 Z M106.563789,100.401684 L106.563789,99.7998596 L110.287579,102.282386 L110.287579,102.884211 L106.563789,100.401684 Z M106.563789,99.0475789 L106.563789,98.4457544 L110.287579,100.928281 L110.287579,101.530105 L106.563789,99.0475789 Z M128.116632,88.402807 L128.116632,89.0046316 L124.392842,86.5597193 L124.392842,85.9578947 L126.950596,87.6129123 L128.116632,88.402807 Z M124.392842,93.2174035 L124.392842,92.6155789 L128.116632,95.0604912 L128.116632,95.6623158 L124.392842,93.2174035 Z M124.392842,109.466667 L124.392842,108.864842 L128.116632,111.309754 L128.116632,111.911579 L124.392842,109.466667 Z M124.392842,108.112561 L124.392842,107.510737 L128.116632,109.955649 L128.116632,110.557474 L124.392842,108.112561 Z M124.392842,106.758456 L124.392842,106.156632 L128.116632,108.601544 L128.116632,109.203368 L124.392842,106.758456 Z M124.392842,90.509193 L124.392842,89.9073684 L128.116632,92.3522807 L128.116632,92.9541053 L124.392842,90.509193 Z M124.392842,105.404351 L124.392842,104.802526 L128.116632,107.247439 L128.116632,107.849263 L124.392842,105.404351 Z M124.392842,102.69614 L124.392842,102.094316 L128.116632,104.539228 L128.116632,105.141053 L124.392842,102.69614 Z M124.392842,91.8632982 L124.392842,91.2614737 L128.116632,93.706386 L128.116632,94.3082105 L124.392842,91.8632982 Z M124.392842,87.8009825 L124.392842,87.1991579 L128.116632,89.6440702 L128.116632,90.2458947 L124.392842,87.8009825 Z M124.392842,104.050246 L124.392842,103.448421 L128.116632,105.893333 L128.116632,106.495158 L124.392842,104.050246 Z M124.392842,94.5715088 L124.392842,93.9696842 L128.116632,96.4145965 L128.116632,97.0164211 L124.392842,94.5715088 Z M124.392842,95.925614 L124.392842,95.3237895 L128.116632,97.7687018 L128.116632,98.3705263 L124.392842,95.925614 Z M124.392842,112.137263 L124.392842,111.573053 L128.116632,114.017965 L128.116632,114.582175 L124.392842,112.137263 Z M124.392842,98.6338246 L124.392842,98.032 L128.116632,100.476912 L128.116632,101.078737 L124.392842,98.6338246 Z M124.392842,97.2797193 L124.392842,96.6778947 L128.116632,99.122807 L128.116632,99.7246316 L124.392842,97.2797193 Z M124.392842,89.1550877 L124.392842,88.5532632 L128.116632,90.9981754 L128.116632,91.6 L124.392842,89.1550877 Z M124.392842,110.820772 L124.392842,110.218947 L128.116632,112.66386 L128.116632,113.22807 L124.392842,110.820772 Z M124.392842,101.342035 L124.392842,100.740211 L128.116632,103.185123 L128.116632,103.786947 L124.392842,101.342035 Z M124.392842,99.9879298 L124.392842,99.3861053 L128.116632,101.831018 L128.116632,102.432842 L124.392842,99.9879298 Z M110.287579,114.80786 L109.911439,114.80786 L106.563789,112.588632 L106.563789,111.986807 L110.287579,114.431719 L110.287579,114.80786 Z M104.495018,112.588632 L105.435368,112.588632 L108.783018,114.80786 L107.880281,114.80786 L104.495018,112.588632 Z M102.46386,112.588632 L103.366596,112.588632 L106.75186,114.80786 L105.811509,114.80786 L102.46386,112.588632 Z M126.837754,114.99593 L123.490105,112.776702 L124.167158,112.776702 L127.552421,114.99593 L126.837754,114.99593 Z M106.563789,97.6934737 L106.563789,97.1668772 L108.105965,98.7090526 L106.563789,97.6934737 Z M101.222596,111.911579 L101.222596,85.3184561 L102.689544,85.3184561 L119.051649,102.357614 L119.051649,85.4689123 L123.715789,85.4689123 L123.715789,112.099649 L122.474526,112.099649 L105.886737,95.5118596 L105.886737,111.911579 L101.222596,111.911579 Z M140.040281,99.7246316 L140.040281,99.122807 L143.76407,101.567719 L143.76407,102.169544 L140.040281,99.7246316 Z M140.040281,110.557474 L140.040281,109.955649 L143.76407,112.400561 L143.76407,113.002386 L140.040281,110.557474 Z M140.040281,111.911579 L140.040281,111.309754 L143.76407,113.754667 L143.76407,114.356491 L140.040281,111.911579 Z M140.040281,94.3082105 L140.040281,93.706386 L143.76407,96.1512982 L143.76407,96.7531228 L140.040281,94.3082105 Z M140.040281,88.8917895 L140.040281,88.2899649 L143.76407,90.7348772 L143.76407,91.3367018 L140.040281,88.8917895 Z M140.040281,91.6 L140.040281,90.9981754 L143.76407,93.4430877 L143.76407,94.0449123 L140.040281,91.6 Z M140.040281,90.2458947 L140.040281,89.6440702 L143.76407,92.0889825 L143.76407,92.690807 L140.040281,90.2458947 Z M140.040281,98.3705263 L140.040281,97.7687018 L143.76407,100.213614 L143.76407,100.815439 L140.040281,98.3705263 Z M140.040281,95.6623158 L140.040281,95.0604912 L143.76407,97.5054035 L143.76407,98.1072281 L140.040281,95.6623158 Z M140.040281,105.141053 L140.040281,104.539228 L143.76407,106.98414 L143.76407,107.585965 L140.040281,105.141053 Z M140.040281,103.786947 L140.040281,103.185123 L143.76407,105.630035 L143.76407,106.23186 L140.040281,103.786947 Z M140.040281,101.078737 L140.040281,100.476912 L143.76407,102.921825 L143.76407,103.523649 L140.040281,101.078737 Z M140.040281,109.203368 L140.040281,108.601544 L143.76407,111.046456 L143.76407,111.648281 L140.040281,109.203368 Z M140.040281,97.0164211 L140.040281,96.4145965 L143.76407,98.8595088 L143.76407,99.4613333 L140.040281,97.0164211 Z M140.040281,92.9541053 L140.040281,92.3522807 L143.76407,94.797193 L143.76407,95.3990175 L140.040281,92.9541053 Z M140.040281,87.5376842 L140.040281,87.0487018 L143.76407,89.493614 L143.76407,89.9825965 L140.040281,87.5376842 Z M140.040281,107.849263 L140.040281,107.247439 L143.76407,109.692351 L143.76407,110.294175 L140.040281,107.849263 Z M140.040281,106.495158 L140.040281,105.893333 L143.76407,108.338246 L143.76407,108.94007 L140.040281,106.495158 Z M140.040281,102.432842 L140.040281,101.831018 L143.76407,104.27593 L143.76407,104.877754 L140.040281,102.432842 Z M137.256842,112.588632 L138.009123,112.588632 L141.356772,114.80786 L140.642105,114.80786 L137.256842,112.588632 Z M139.024702,112.588632 L139.927439,112.588632 L143.312702,114.80786 L142.372351,114.80786 L139.024702,112.588632 Z M143.76407,88.402807 L143.76407,88.9294035 L140.040281,86.4844912 L140.040281,85.9202807 L143.76407,88.402807 Z M139.062316,114.80786 L135.714667,112.588632 L136.354105,112.588632 L139.739368,114.80786 L139.062316,114.80786 Z M134.699088,111.911579 L134.699088,85.4689123 L139.363228,85.4689123 L139.363228,111.911579 L134.699088,111.911579 Z M150.346526,111.911579 L150.346526,85.4689123 L167.53614,85.4689123 L167.53614,89.7569123 L155.010667,89.7569123 L155.010667,97.1668772 L166.370105,97.1668772 L166.370105,101.304421 L155.010667,101.304421 L155.010667,107.623579 L167.53614,107.623579 L167.53614,111.911579 L150.346526,111.911579 Z M155.687719,102.50807 L155.687719,101.981474 L155.838175,101.981474 L159.411509,104.351158 L159.411509,104.952982 L155.687719,102.50807 Z M155.687719,103.862175 L155.687719,103.260351 L159.411509,105.705263 L159.411509,106.307088 L155.687719,103.862175 Z M168.213193,110.745544 L168.213193,110.143719 L171.936982,112.588632 L171.936982,113.190456 L168.213193,110.745544 Z M168.213193,109.391439 L168.213193,108.789614 L171.936982,111.27214 L171.936982,111.873965 L168.213193,109.391439 Z M168.213193,89.0798596 L168.213193,88.4780351 L171.936982,90.9605614 L171.936982,91.562386 L168.213193,89.0798596 Z M167.047158,100.514526 L167.047158,99.9127018 L170.770947,102.357614 L170.770947,102.959439 L167.047158,100.514526 Z M155.687719,93.0293333 L155.687719,92.4275088 L159.411509,94.8724211 L159.411509,95.4742456 L155.687719,93.0293333 Z M155.687719,91.6752281 L155.687719,91.0734035 L159.411509,93.5183158 L159.411509,94.1201404 L155.687719,91.6752281 Z M168.213193,87.7257544 L168.213193,87.1239298 L171.936982,89.6064561 L171.936982,90.2082807 L168.213193,87.7257544 Z M168.213193,112.099649 L168.213193,111.497825 L171.936982,113.942737 L171.936982,114.544561 L168.213193,112.099649 Z M170.770947,104.200702 L170.620491,104.200702 L167.047158,101.868632 L167.047158,101.266807 L170.770947,103.711719 L170.770947,104.200702 Z M171.936982,92.653193 L171.560842,92.653193 L168.213193,90.4339649 L168.213193,89.8321404 L171.936982,92.3146667 L171.936982,92.653193 Z M159.411509,96.4898246 L158.884912,96.4898246 L155.687719,94.3834386 L155.687719,93.781614 L159.411509,96.2265263 L159.411509,96.4898246 Z M171.936982,88.402807 L171.936982,88.9670175 L168.213193,86.4844912 L168.213193,85.9202807 L171.936982,88.402807 Z M161.066526,101.981474 L162.006877,101.981474 L165.354526,104.200702 L164.414175,104.200702 L161.066526,101.981474 Z M152.490526,112.588632 L153.430877,112.588632 L156.81614,114.80786 L155.875789,114.80786 L152.490526,112.588632 Z M159.411509,92.653193 L159.411509,92.7660351 L155.875789,90.4339649 L156.81614,90.4339649 L160.163789,92.653193 L159.411509,92.653193 Z M157.944561,90.4339649 L158.847298,90.4339649 L162.232561,92.653193 L161.292211,92.653193 L157.944561,90.4339649 Z M162.796772,112.588632 L163.699509,112.588632 L167.084772,114.80786 L166.144421,114.80786 L162.796772,112.588632 Z M159.975719,90.4339649 L160.91607,90.4339649 L164.263719,92.653193 L163.360982,92.653193 L159.975719,90.4339649 Z M156.966596,101.981474 L157.869333,101.981474 L161.254596,104.200702 L160.314246,104.200702 L156.966596,101.981474 Z M160.728,112.588632 L161.630737,112.588632 L165.016,114.80786 L164.075649,114.80786 L160.728,112.588632 Z M164.075649,90.4339649 L165.016,90.4339649 L168.363649,92.653193 L167.460912,92.653193 L164.075649,90.4339649 Z M164.82793,112.588632 L165.768281,112.588632 L169.11593,114.80786 L168.213193,114.80786 L164.82793,112.588632 Z M156.62807,112.588632 L157.530807,112.588632 L160.91607,114.80786 L159.975719,114.80786 L156.62807,112.588632 Z M166.896702,112.588632 L167.799439,112.588632 L171.184702,114.80786 L170.244351,114.80786 L166.896702,112.588632 Z M154.559298,112.588632 L155.499649,112.588632 L158.847298,114.80786 L157.944561,114.80786 L154.559298,112.588632 Z M158.659228,112.588632 L159.599579,112.588632 L162.947228,114.80786 L162.044491,114.80786 L158.659228,112.588632 Z M162.044491,90.4339649 L162.947228,90.4339649 L166.332491,92.653193 L165.39214,92.653193 L162.044491,90.4339649 Z M163.135298,101.981474 L164.038035,101.981474 L167.423298,104.200702 L166.482947,104.200702 L163.135298,101.981474 Z M158.997754,101.981474 L159.938105,101.981474 L163.285754,104.200702 L162.383018,104.200702 L158.997754,101.981474 Z M165.166456,101.981474 L166.106807,101.981474 L169.454456,104.200702 L168.551719,104.200702 L165.166456,101.981474 Z M170.770947,100.100772 L170.770947,100.627368 L167.047158,98.1824561 L167.047158,97.6182456 L170.770947,100.100772 Z M166.144421,90.4339649 L167.047158,90.4339649 L170.432421,92.653193 L169.529684,92.653193 L166.144421,90.4339649 Z M167.047158,99.3108772 L167.047158,98.7842807 L170.770947,101.229193 L170.770947,101.755789 L167.047158,99.3108772 Z M155.687719,105.216281 L155.687719,104.614456 L159.261053,106.946526 L158.320702,106.946526 L155.687719,105.216281 Z M155.687719,95.7375439 L155.687719,95.1357193 L157.756491,96.4898246 L156.853754,96.4898246 L155.687719,95.7375439 Z M155.687719,105.968561 L157.192281,106.946526 L156.289544,106.946526 L155.687719,106.570386 L155.687719,105.968561 Z M154.709754,114.80786 L151.362105,112.588632 L151.399719,112.588632 L154.747368,114.80786 L154.709754,114.80786 Z M182.807439,95.8127719 L182.807439,95.2109474 L186.531228,97.6558596 L186.531228,98.2576842 L182.807439,95.8127719 Z M182.807439,94.4586667 L182.807439,93.8568421 L186.531228,96.3017544 L186.531228,96.9035789 L182.807439,94.4586667 Z M182.807439,102.583298 L182.807439,101.981474 L186.531228,104.426386 L186.531228,105.028211 L182.807439,102.583298 Z M182.807439,93.1045614 L182.807439,92.5027368 L186.531228,94.9476491 L186.531228,95.5494737 L182.807439,93.1045614 Z M182.807439,90.3963509 L182.807439,89.7945263 L186.531228,92.2394386 L186.531228,92.8412632 L182.807439,90.3963509 Z M182.807439,89.0422456 L182.807439,88.4404211 L186.531228,90.8853333 L186.531228,91.4871579 L182.807439,89.0422456 Z M182.807439,87.6881404 L182.807439,87.0863158 L186.531228,89.5312281 L186.531228,90.1330526 L182.807439,87.6881404 Z M182.807439,97.1668772 L182.807439,96.5650526 L186.531228,99.0099649 L186.531228,99.6117895 L182.807439,97.1668772 Z M182.807439,91.7504561 L182.807439,91.1486316 L186.531228,93.5935439 L186.531228,94.1953684 L182.807439,91.7504561 Z M182.807439,103.937404 L182.807439,103.335579 L186.531228,105.780491 L186.531228,106.382316 L182.807439,103.937404 Z M182.807439,101.229193 L182.807439,100.627368 L186.531228,103.072281 L186.531228,103.674105 L182.807439,101.229193 Z M182.807439,99.8750877 L182.807439,99.2732632 L186.531228,101.718175 L186.531228,102.32 L182.807439,99.8750877 Z M182.807439,98.5209825 L182.807439,97.9191579 L186.531228,100.36407 L186.531228,100.965895 L182.807439,98.5209825 Z M195.332912,110.820772 L195.332912,110.256561 L199.056702,112.66386 L199.056702,113.265684 L195.332912,110.820772 Z M195.332912,109.466667 L195.332912,108.902456 L199.056702,111.347368 L199.056702,111.911579 L195.332912,109.466667 Z M195.332912,112.174877 L195.332912,111.610667 L199.056702,114.017965 L199.056702,114.619789 L195.332912,112.174877 Z M181.566175,112.588632 L182.468912,112.588632 L185.854175,114.80786 L184.913825,114.80786 L181.566175,112.588632 Z M189.766035,112.588632 L190.706386,112.588632 L194.054035,114.80786 L193.151298,114.80786 L189.766035,112.588632 Z M183.597333,112.588632 L184.537684,112.588632 L187.885333,114.80786 L186.982596,114.80786 L183.597333,112.588632 Z M179.497404,112.588632 L180.437754,112.588632 L183.785404,114.80786 L182.882667,114.80786 L179.497404,112.588632 Z M185.666105,112.588632 L186.568842,112.588632 L189.954105,114.80786 L189.051368,114.80786 L185.666105,112.588632 Z M193.903579,112.588632 L194.806316,112.588632 L198.153965,114.80786 L197.251228,114.80786 L193.903579,112.588632 Z M191.834807,112.588632 L192.737544,112.588632 L196.122807,114.80786 L195.22007,114.80786 L191.834807,112.588632 Z M187.734877,112.588632 L188.637614,112.588632 L191.985263,114.80786 L191.082526,114.80786 L187.734877,112.588632 Z M186.531228,88.402807 L186.531228,88.8917895 L182.807439,86.4468772 L182.807439,85.9202807 L186.531228,88.402807 Z M182.807439,105.291509 L182.807439,104.689684 L186.230316,106.946526 L185.327579,106.946526 L182.807439,105.291509 Z M182.807439,106.043789 L184.199158,106.946526 L183.296421,106.946526 L182.807439,106.645614 L182.807439,106.043789 Z M177.466246,111.911579 L177.466246,85.4689123 L182.130386,85.4689123 L182.130386,107.623579 L194.65586,107.623579 L194.65586,111.911579 L177.466246,111.911579 Z"></path>
  <path d="M1,105.575158 C1,103.951477 1.41688472,102.662426 2.25066667,101.707965 C3.08444861,100.753504 4.23636692,99.9361905 5.70645614,99.256 C4.01695062,97.5884361 3.17221053,95.8989559 3.17221053,94.1875088 C3.17221053,92.2785869 3.80850826,90.7701225 5.08112281,89.6620702 C6.35373736,88.5540179 7.99933494,88 10.0179649,88 C11.9927116,88 13.5779706,88.5265912 14.7737895,89.5797895 C15.9696083,90.6329877 16.5675088,92.004319 16.5675088,93.6938246 C16.5675088,95.4052717 16.1561094,96.7436911 15.3332982,97.7091228 C14.5104871,98.6745545 13.3750248,99.4644414 11.9268772,100.078807 L16.8637193,104.653614 C17.5000266,103.973423 18.114383,103.232905 18.706807,102.432035 C19.299231,101.631166 19.7270864,101.000353 19.990386,100.539579 L20.3853333,99.8813333 L23.2487018,101.921895 C22.2393868,103.633342 20.8899968,105.344763 19.2004912,107.056211 L22.1296842,110.051228 L19.4967018,112.81586 L16.3042105,109.557544 C13.9125728,111.268991 11.5429123,112.124702 9.19515789,112.124702 C6.67187042,112.124702 4.67521203,111.499375 3.20512281,110.248702 C1.73503359,108.998029 1,107.440196 1,105.575158 L1,105.575158 Z M9.5242807,108.603088 C10.9504867,108.603088 12.4095832,108.120379 13.901614,107.154947 L8.07614035,101.691509 C6.23304342,102.569174 5.31150877,103.764975 5.31150877,105.278947 C5.31150877,106.332146 5.68451089,107.149459 6.43052632,107.730912 C7.17654174,108.312365 8.20778289,108.603088 9.5242807,108.603088 L9.5242807,108.603088 Z M7.25333333,94.1875088 C7.25333333,94.7579912 7.43434907,95.2845824 7.79638596,95.7672982 C8.15842286,96.2500141 8.75632332,96.8753412 9.59010526,97.6432982 C10.6213619,97.182524 11.4057634,96.6943301 11.9433333,96.1787018 C12.4809033,95.6630734 12.7496842,94.9993491 12.7496842,94.1875088 C12.7496842,93.3756685 12.5028446,92.6954881 12.0091579,92.1469474 C11.5154712,91.5984066 10.8517469,91.3241404 10.0179649,91.3241404 C9.16224134,91.3241404 8.48754633,91.5984066 7.99385965,92.1469474 C7.50017297,92.6954881 7.25333333,93.3756685 7.25333333,94.1875088 L7.25333333,94.1875088 Z M26.9677895,104.719439 L26.7374035,105.114386 L23.2157895,102.777614 L23.4132632,102.382667 L26.9677895,104.719439 Z M24.7955789,113.934877 C24.7736373,113.956819 24.7407254,113.989731 24.6968421,114.033614 C24.6529588,114.077497 24.6090762,114.115895 24.565193,114.148807 C24.5213097,114.181719 24.4883978,114.220117 24.4664561,114.264 L21.0435789,111.993053 L21.3727018,111.66393 L24.7955789,113.934877 Z M24.1044211,114.658947 L23.8082105,114.98807 L20.3524211,112.717123 L20.6815439,112.388 L24.1044211,114.658947 Z M25.8487719,106.365053 L25.5854737,106.727088 L22.1625965,104.45614 C22.1845381,104.434199 22.2229354,104.379345 22.2777895,104.291579 C22.3326435,104.203812 22.3820115,104.137989 22.4258947,104.094105 L25.8487719,106.365053 Z M24.6310175,107.91193 L24.334807,108.273965 L20.9448421,106.03593 L21.2410526,105.706807 L24.6310175,107.91193 Z M10.1167018,105.476421 L9.82049123,105.805544 L6.43052632,103.567509 L6.75964912,103.238386 L10.1167018,105.476421 Z M26.4082807,105.542246 L26.1778947,105.904281 L22.7221053,103.633333 L22.9195789,103.238386 L26.4082807,105.542246 Z M14.4611228,99.3876491 L14.8231579,99.0914386 L18.1472982,101.263649 L17.7523509,101.55986 L14.4611228,99.3876491 Z M25.4538246,113.210807 L25.157614,113.53993 L21.7347368,111.301895 L22.0309474,110.972772 L25.4538246,113.210807 Z M16.7978947,96.1951579 C16.841778,96.0635081 16.8856606,95.909919 16.9295439,95.734386 L20.2536842,97.9395088 L20.1549474,98.4002807 L16.7978947,96.1951579 Z M11.8281404,94.7470175 C11.6526073,94.9664338 11.5648421,95.087111 11.5648421,95.1090526 L8.17487719,92.8710175 L8.47108772,92.5418947 L11.8281404,94.7470175 Z M23.9727719,108.668912 L23.6765614,108.998035 L20.2865965,106.792912 L20.582807,106.463789 L23.9727719,108.668912 Z M15.9092632,97.9724211 L16.1396491,97.610386 L19.4967018,99.8155088 C19.4747601,99.8374504 19.3869949,99.9581276 19.2334035,100.177544 L15.9092632,97.9724211 Z M9.19515789,107.253684 C9.17321626,107.341451 9.16224561,107.50601 9.16224561,107.747368 L5.90392982,105.60807 L5.90392982,105.048561 L9.19515789,107.253684 Z M25.2563509,107.154947 L24.9601404,107.48407 L21.5701754,105.246035 L21.8334737,104.916912 L25.2563509,107.154947 Z M9.5242807,106.266316 C9.43651418,106.441849 9.38166093,106.573497 9.3597193,106.661263 L6.00266667,104.45614 L6.16722807,104.028281 L9.5242807,106.266316 Z M20.3853333,95.6356491 C20.3853333,95.701474 20.3908187,95.7947245 20.4017895,95.9154035 C20.4127603,96.0360825 20.4182456,96.129333 20.4182456,96.1951579 L17.1599298,94.0558596 L17.1599298,93.5292632 L20.3853333,95.6356491 Z M16.4358596,97.1167018 L16.6004211,96.7217544 L19.9574737,98.9268772 L19.76,99.3218246 L16.4358596,97.1167018 Z M17.2586667,113.704491 L16.7649825,113.934877 L13.5395789,111.795579 L14.0003509,111.598105 L17.2586667,113.704491 Z M14.5927719,111.301895 C14.8341299,111.192187 14.9767483,111.115392 15.0206316,111.071509 L18.3118596,113.210807 L17.8510877,113.441193 L14.5927719,111.301895 Z M17.2586667,101.888982 C17.1489585,101.976749 17.0063401,102.053544 16.830807,102.119368 L13.5395789,99.9471579 L13.9674386,99.7167719 L17.2586667,101.888982 Z M17.061193,95.1748772 C17.0831346,95.065169 17.0941053,94.9006093 17.0941053,94.681193 L20.3853333,96.8534035 C20.3853333,96.8972868 20.379848,96.9740813 20.3688772,97.0837895 C20.3579064,97.1934976 20.3524211,97.2812628 20.3524211,97.3470877 L17.061193,95.1748772 Z M18.8713684,100.572491 L18.5751579,100.901614 L15.2510175,98.6964912 L15.5472281,98.4002807 L18.8713684,100.572491 Z M16.1396491,114.165263 L15.5801404,114.329825 L12.3876491,112.190526 C12.5412405,112.168585 12.7167709,112.113731 12.9142456,112.025965 L16.1396491,114.165263 Z M11.3015439,95.6027368 C11.2576606,95.6905034 11.213778,95.8221512 11.1698947,95.9976842 L7.84575439,93.8254737 L7.94449123,93.3647018 L11.3015439,95.6027368 Z M14.8560702,114.494386 L14.1978246,114.593123 L11.0711579,112.519649 C11.3344575,112.475766 11.5319292,112.431883 11.6635789,112.388 L14.8560702,114.494386 Z M20.0232982,94.2204211 L20.2207719,94.8786667 L17.0941053,92.8381053 L16.9953684,92.2456842 L20.0232982,94.2204211 Z M13.1446316,114.658947 C12.8374488,114.658947 12.6070651,114.647977 12.4534737,114.626035 L9.5242807,112.717123 L10.2483509,112.651298 L13.309193,114.658947 L13.1446316,114.658947 Z M25.9475088,112.684211 L25.8487719,112.782947 L22.4258947,110.544912 L22.7221053,110.215789 L24.9601404,111.66393 L25.9475088,112.684211 Z M12.1572632,94.1875088 L12.1572632,94.2862456 L8.93185965,92.1798596 C8.99768454,92.1359764 9.17321495,92.0701525 9.45845614,91.982386 L12.1243509,93.7596491 C12.1243509,93.8035324 12.1298362,93.8748416 12.140807,93.9735789 C12.1517778,94.0723163 12.1572632,94.1436255 12.1572632,94.1875088 L12.1572632,94.1875088 Z M10.7091228,104.982737 L10.5445614,105.081474 L7.18750877,102.876351 C7.38498344,102.722759 7.51663125,102.634994 7.58245614,102.613053 L9.59010526,103.929544 L10.7091228,104.982737 Z M11.3015439,114.527298 C11.0163027,114.483415 10.6103886,114.39565 10.0837895,114.264 L7.58245614,112.618386 C7.97740548,112.662269 8.29555435,112.684211 8.53691228,112.684211 L11.3015439,114.527298 Z M8.17487719,95.2407018 C8.02128578,94.9993438 7.91157928,94.7470189 7.84575439,94.4837193 L10.7749474,96.4255439 L10.3470877,96.6559298 L8.17487719,95.2407018 Z M18.0814737,91.8507368 C18.7397226,92.3115111 19.2443725,92.816161 19.5954386,93.3647018 L16.7978947,91.5545263 C16.666245,91.2034602 16.5565385,90.9511353 16.4687719,90.7975439 L18.0814737,91.8507368 Z M15.5472281,110.775298 L15.9750877,110.512 L17.0941053,111.23607 L18.6409825,112.782947 L15.5472281,110.775298 Z M16.2712982,102.415579 L15.8105263,102.645965 L15.185193,102.251018 L12.9800702,100.243368 L16.2712982,102.415579 Z M21.9651228,109.06386 L20.5169825,107.582807 L23.281614,109.425895 L23.0183158,109.689193 L23.1828772,109.853754 L21.9651228,109.06386 Z M8.504,107.944842 C7.25332708,107.747367 6.45246959,107.220776 6.10140351,106.365053 L8.504,107.944842 Z M10.38,91.9494737 C10.9943656,92.0372402 11.4661036,92.3553891 11.7952281,92.9039298 L10.38,91.9494737 Z M9.72175439,96.9521404 L9.5242807,96.7546667 L9.78757895,96.9521404 L9.72175439,96.9521404 Z"></path>
  <path d="M171,153.849017 L158.962755,162.270392 L162.661523,176 C162.661523,176 104.955921,149.804096 39.3895182,176 L43.157373,162.345232 L31,153.849017 C74.2842448,133.564975 129.314453,134.541703 171,153.849017 Z M61.4376495,160.439711 L60.3825538,159.45272 C61.082467,158.899239 61.6443214,158.324459 62.068134,157.728365 C62.4919466,157.132271 62.7196099,156.605423 62.7511308,156.147805 C62.6602293,156.368419 62.4991622,156.585329 62.2679244,156.798543 C62.0366867,157.011756 61.7507761,157.160269 61.410184,157.244087 C60.6855201,157.422421 60.0599623,157.351439 59.5334919,157.031139 C59.0070215,156.710839 58.6448241,156.15569 58.4468888,155.365677 C58.2615494,154.625938 58.3567954,153.954404 58.7326296,153.351055 C59.1084639,152.747706 59.7275467,152.339928 60.5898969,152.12771 C61.4015205,151.927975 62.1266324,152.02783 62.7652542,152.427277 C63.403876,152.826725 63.8320449,153.460946 64.0497737,154.32996 C64.2063225,154.954789 64.2574425,155.54265 64.203135,156.09356 C64.1488275,156.64447 63.9845469,157.170969 63.7102881,157.673074 C63.4360293,158.175178 63.1256277,158.632798 62.779074,159.045947 C62.4325202,159.459096 61.9853832,159.923679 61.4376495,160.439711 Z M62.5013634,154.367901 C62.3951981,153.944166 62.1905972,153.641877 61.8875545,153.461024 C61.5845118,153.280172 61.2445829,153.236113 60.8677576,153.328847 C60.4909323,153.421581 60.2090214,153.616764 60.0220162,153.914401 C59.835011,154.212039 59.7954914,154.57631 59.9034561,155.007227 C60.0114208,155.438143 60.2187331,155.743577 60.5253991,155.923538 C60.8320651,156.103499 61.1738057,156.147112 61.5506309,156.054378 C61.9202095,155.963428 62.1980474,155.767341 62.3841529,155.466112 C62.5702583,155.164884 62.6093281,154.798817 62.5013634,154.367901 Z M71.122414,151.563404 L70.8991408,150.317501 L74.2514784,149.727422 L74.4747516,150.973324 L73.6366672,151.120844 L74.3182381,154.924125 C74.4801446,155.827591 74.4010373,156.549873 74.0809139,157.090993 C73.7607904,157.632113 73.1412595,157.983545 72.2223027,158.1453 C71.8620717,158.208708 71.5080622,158.222169 71.1602637,158.185682 C70.8124652,158.149196 70.5565662,158.096535 70.392559,158.027698 L70.1465495,157.924442 L70.4650678,156.718458 C70.9423859,156.927558 71.445697,156.985522 71.9750161,156.892351 C72.232324,156.84706 72.438664,156.771282 72.5940422,156.665016 C72.7494205,156.55875 72.8541587,156.42382 72.9082601,156.260222 C72.9623615,156.096625 72.989426,155.930273 72.9894544,155.761161 C72.9894828,155.59205 72.9686062,155.390921 72.9268238,155.157768 L72.2472115,151.365417 L71.122414,151.563404 Z M81.611555,150.099897 L81.4375347,148.846305 L84.5220799,148.425729 L84.6961002,149.679321 L83.8417477,149.795811 L84.2966429,153.072744 C84.4513284,154.187054 84.2751626,155.062611 83.7681401,155.699444 C83.2611177,156.336277 82.5009215,156.723775 81.4875286,156.861951 C80.4741358,157.000126 79.6442493,156.831302 78.9978443,156.355474 C78.3514392,155.879646 77.9503911,155.080923 77.794688,153.959283 L77.3397928,150.68235 L76.4854403,150.79884 L76.31142,149.545248 L79.3959652,149.124672 L79.5699855,150.378264 L78.7156331,150.494755 L79.1705283,153.771688 C79.3638851,155.164574 80.0782047,155.776792 81.3135083,155.608359 C82.5784001,155.435891 83.1136507,154.649561 82.9192761,153.249343 L82.4659074,149.983406 L81.611555,150.099897 Z M93.4861636,155.785878 L87.5241443,156.255247 L87.4230391,154.993821 L88.282731,154.92614 L87.8614591,149.670197 L87.0017672,149.737877 L86.9006619,148.476451 L90.3394296,148.205728 L90.4405348,149.467155 L89.245898,149.561205 L89.6671699,154.817148 L92.2015863,154.617622 L92.1324091,153.754541 L93.315881,153.66137 L93.4861636,155.785878 Z M94.9246611,149.342215 L94.8790401,148.077623 L97.9906519,147.967365 L98.0362729,149.231957 L97.1744236,149.262496 L97.3645112,154.53163 L98.2263605,154.501091 L98.2719815,155.765683 L95.1603697,155.87594 L95.1147487,154.611348 L95.976598,154.580809 L95.7865104,149.311676 L94.9246611,149.342215 Z M100.026836,151.899545 C100.018846,150.774767 100.417132,149.819224 101.221704,149.032887 C102.026276,148.246551 103.018402,147.849273 104.198112,147.841042 C105.415154,147.832551 106.423946,148.204768 107.224518,148.957706 C108.02509,149.710643 108.429523,150.671685 108.437827,151.840862 C108.445975,152.987839 108.051462,153.948906 107.254278,154.724091 C106.457093,155.499276 105.457462,155.891056 104.255352,155.899443 C103.053242,155.90783 102.050024,155.531873 101.245666,154.771562 C100.441308,154.011252 100.035036,153.053922 100.026836,151.899545 Z M101.527756,151.911274 C101.533328,152.695658 101.799357,153.356112 102.32585,153.892655 C102.852343,154.429197 103.496373,154.694808 104.257958,154.689494 C105.019543,154.684181 105.659748,154.41146 106.178594,153.871324 C106.697439,153.331188 106.954046,152.665238 106.948422,151.873454 C106.942693,151.06687 106.682211,150.398977 106.16697,149.869756 C105.651729,149.340535 105.002126,149.078664 104.218142,149.084133 C103.441624,149.089551 102.797685,149.362298 102.286306,149.902382 C101.774927,150.442465 101.52208,151.112089 101.527756,151.911274 Z M120.08269,156.784749 L114.386159,156.368405 L114.4397,155.648859 C115.610181,154.910772 116.519901,154.205579 117.168887,153.533259 C117.622134,153.076656 117.936671,152.672994 118.112509,152.322259 C118.288347,151.971524 118.390268,151.607972 118.418274,151.231592 C118.445182,150.869972 118.339247,150.558009 118.100465,150.295693 C117.861683,150.033377 117.51518,149.885621 117.060944,149.852422 C116.725853,149.827931 116.409673,149.851198 116.112396,149.922222 C115.815119,149.993247 115.599893,150.068412 115.466713,150.14772 L115.27729,150.278567 L114.869844,149.113513 C114.893282,149.100386 114.924852,149.078578 114.964555,149.04809 C115.004259,149.017601 115.097597,148.970628 115.244571,148.907168 C115.391546,148.843709 115.547277,148.788311 115.71177,148.740972 C115.876262,148.693633 116.092465,148.65564 116.360385,148.62699 C116.628304,148.598341 116.907466,148.594629 117.197879,148.615855 C118.121243,148.683341 118.817072,148.966073 119.285388,149.464059 C119.753704,149.962045 119.960951,150.572649 119.907135,151.295888 C119.868145,151.819868 119.738685,152.301983 119.518751,152.742246 C119.298816,153.18251 118.923351,153.650355 118.392345,154.145794 C118.255321,154.276762 118.056257,154.436584 117.795147,154.625264 C117.534037,154.813943 117.308911,154.97186 117.119761,155.099018 L116.825693,155.277868 L118.992608,155.436242 L119.05274,154.628136 L120.236724,154.714671 L120.08269,156.784749 Z M122.2737,153.227324 C122.405996,152.087837 122.86701,151.175796 123.656754,150.491175 C124.446499,149.806553 125.401398,149.528112 126.52148,149.655843 C127.648979,149.78442 128.510617,150.260703 129.106418,151.084707 C129.70222,151.90871 129.931835,152.908819 129.795272,154.085064 C129.657855,155.26866 129.217601,156.196104 128.474496,156.867422 C127.731392,157.53874 126.770143,157.807146 125.590719,157.672647 C124.403877,157.537303 123.519986,157.058482 122.93902,156.236171 C122.358055,155.413859 122.136283,154.410921 122.2737,153.227324 Z M123.762102,153.419404 C123.669922,154.213369 123.804296,154.900943 124.165228,155.482145 C124.52616,156.063347 125.051544,156.393278 125.741395,156.471947 C126.423829,156.54977 126.999539,156.349129 127.468543,155.87002 C127.937547,155.39091 128.218988,154.74703 128.312876,153.938362 C128.407616,153.122342 128.283155,152.430312 127.939487,151.862252 C127.595819,151.294192 127.079067,150.970832 126.389215,150.892163 C125.699364,150.813494 125.112527,151.012866 124.628688,151.490284 C124.144849,151.967702 123.85599,152.610736 123.762102,153.419404 Z M131.446907,158.522075 L131.657528,157.274011 L133.15986,157.523034 L133.958001,152.793526 L132.217799,153.146563 L131.947836,151.920126 L135.286443,151.24682 L135.61784,151.301751 L134.529634,157.750084 L135.899408,157.977135 L135.688787,159.225199 L131.446907,158.522075 Z M142.65697,152.407397 L143.184531,153.74688 C142.312974,153.95036 141.557007,154.231632 140.916608,154.590702 C140.276209,154.949773 139.842993,155.329429 139.616947,155.729681 C139.794348,155.568824 140.03357,155.441067 140.334619,155.346405 C140.635669,155.251744 140.958203,155.238745 141.302231,155.307408 C142.034206,155.453499 142.568974,155.782911 142.906549,156.295653 C143.244124,156.808395 143.331837,157.463748 143.169688,158.261732 C143.017859,159.008935 142.641867,159.575514 142.041701,159.961486 C141.441535,160.347459 140.705938,160.453519 139.834887,160.27967 C139.015075,160.116048 138.40279,159.718326 137.998015,159.086491 C137.59324,158.454656 137.480035,157.699859 137.658398,156.822077 C137.786642,156.190944 137.994219,155.63793 138.281135,155.163018 C138.568051,154.688105 138.943828,154.281889 139.408478,153.944356 C139.873127,153.606822 140.35124,153.324822 140.84283,153.098346 C141.334421,152.871871 141.939128,152.641556 142.65697,152.407397 Z M139.074307,157.444356 C138.987337,157.872365 139.041766,158.232346 139.237596,158.524309 C139.433427,158.816272 139.721651,159.000234 140.102278,159.076202 C140.482905,159.152169 140.821972,159.095292 141.119488,158.905568 C141.417004,158.715843 141.609981,158.403354 141.698426,157.96809 C141.78687,157.532826 141.731348,157.168853 141.531858,156.87616 C141.332368,156.583467 141.042313,156.399139 140.661686,156.323172 C140.288379,156.248665 139.952235,156.3099 139.653245,156.506879 C139.354255,156.703857 139.161278,157.016347 139.074307,157.444356 Z M51.5333333,160.275 C52.0487991,160.275 52.4666667,159.860863 52.4666667,159.35 C52.4666667,158.839137 52.0487991,158.425 51.5333333,158.425 C51.0178676,158.425 50.6,158.839137 50.6,159.35 C50.6,159.860863 51.0178676,160.275 51.5333333,160.275 Z M150.466667,160.275 C150.982132,160.275 151.4,159.860863 151.4,159.35 C151.4,158.839137 150.982132,158.425 150.466667,158.425 C149.951201,158.425 149.533333,158.839137 149.533333,159.35 C149.533333,159.860863 149.951201,160.275 150.466667,160.275 Z"></path>
  <path d="M51.484,3.592 L51.724,12.064 L50.26,12.064 L50.224,7.216 L47.62,12.136 L47.104,12.136 L44.476,7.3 L44.452,12.064 L43,12.064 L43.24,3.592 L43.9,3.592 L47.404,9.736 L50.824,3.592 L51.484,3.592 Z M60.544,12.064 L60.544,10.048 L56.512,10.048 L56.512,12.064 L55.012,12.064 L55.012,7.252 C55.012,5.97999364 55.311997,5.0340031 55.912,4.414 C56.512003,3.7939969 57.3759944,3.484 58.504,3.484 C59.6320056,3.484 60.5039969,3.79599688 61.12,4.42 C61.7360031,5.04400312 62.044,5.98799368 62.044,7.252 L62.044,12.064 L60.544,12.064 Z M56.512,7.252 L56.512,8.872 C57.0080025,8.86399996 58.351989,8.86 60.544,8.86 L60.544,7.264 C60.544,5.65599196 59.8720067,4.852 58.528,4.852 C57.9039969,4.852 57.4120018,5.04799804 57.052,5.44 C56.6919982,5.83200196 56.512,6.43599592 56.512,7.252 L56.512,7.252 Z M65.44,12.064 L65.44,3.628 L68.62,3.628 C69.9320066,3.628 71.0119958,4.02399604 71.86,4.816 C72.7080042,5.60800396 73.132,6.61599388 73.132,7.84 C73.132,9.04800604 72.7020043,10.053996 71.842,10.858 C70.9819957,11.662004 69.9080064,12.064 68.62,12.064 L65.44,12.064 Z M68.632,4.996 L66.94,4.996 L66.94,10.696 L68.632,10.696 C69.4560041,10.696 70.1459972,10.4280027 70.702,9.892 C71.2580028,9.35599732 71.536,8.68000408 71.536,7.864 C71.536,7.03199584 71.2640027,6.3460027 70.72,5.806 C70.1759973,5.2659973 69.4800042,4.996 68.632,4.996 L68.632,4.996 Z M76.096,12.064 L76.096,3.628 L78.796,3.628 C79.8840054,3.628 80.7179971,3.89999728 81.298,4.444 C81.8780029,4.98800272 82.168,5.71599544 82.168,6.628 C82.168,7.8680062 81.6560051,8.7279976 80.632,9.208 L82.792,12.064 L81.052,12.064 L79.264,9.58 C79.0239988,9.60400012 78.7720013,9.616 78.508,9.616 L77.584,9.616 L77.584,12.064 L76.096,12.064 Z M78.688,4.996 L77.584,4.996 L77.584,8.296 L78.688,8.296 C79.3440033,8.296 79.8199985,8.14400152 80.116,7.84 C80.4120015,7.53599848 80.56,7.13200252 80.56,6.628 C80.56,5.53999456 79.9360062,4.996 78.688,4.996 L78.688,4.996 Z M85.444,12.064 L85.444,3.628 L86.932,3.628 L86.932,12.064 L85.444,12.064 Z M90.436,12.064 L90.436,3.628 L93.616,3.628 C94.9280066,3.628 96.0079958,4.02399604 96.856,4.816 C97.7040042,5.60800396 98.128,6.61599388 98.128,7.84 C98.128,9.04800604 97.6980043,10.053996 96.838,10.858 C95.9779957,11.662004 94.9040064,12.064 93.616,12.064 L90.436,12.064 Z M93.628,4.996 L91.936,4.996 L91.936,10.696 L93.628,10.696 C94.4520041,10.696 95.1419972,10.4280027 95.698,9.892 C96.2540028,9.35599732 96.532,8.68000408 96.532,7.864 C96.532,7.03199584 96.2600027,6.3460027 95.716,5.806 C95.1719973,5.2659973 94.4760042,4.996 93.628,4.996 L93.628,4.996 Z M107.74,8.032 C107.74,8.28800128 107.652001,8.50199914 107.476,8.674 C107.299999,8.84600086 107.088001,8.932 106.84,8.932 C106.583999,8.932 106.370001,8.84600086 106.198,8.674 C106.025999,8.50199914 105.94,8.28800128 105.94,8.032 C105.94,7.78399876 106.025999,7.57200088 106.198,7.396 C106.370001,7.21999912 106.583999,7.132 106.84,7.132 C107.088001,7.132 107.299999,7.21999912 107.476,7.396 C107.652001,7.57200088 107.74,7.78399876 107.74,8.032 L107.74,8.032 Z M122.644,10.228 L123.1,11.5 C123.02,11.5560003 122.904001,11.6219996 122.752,11.698 C122.599999,11.7740004 122.280002,11.8779993 121.792,12.01 C121.303998,12.1420007 120.804003,12.208 120.292,12.208 C118.883993,12.208 117.740004,11.7960041 116.86,10.972 C115.979996,10.1479959 115.54,9.10400632 115.54,7.84 C115.54,6.62399392 115.983996,5.59400422 116.872,4.75 C117.760004,3.90599578 118.831994,3.484 120.088,3.484 C120.632003,3.484 121.151998,3.54199942 121.648,3.658 C122.144002,3.77400058 122.503999,3.88799944 122.728,4 L123.064,4.168 L122.548,5.44 C121.803996,5.07199816 121.068004,4.888 120.34,4.888 C119.363995,4.888 118.588003,5.16399724 118.012,5.716 C117.435997,6.26800276 117.148,6.9839956 117.148,7.864 C117.148,8.71200424 117.435997,9.41399722 118.012,9.97 C118.588003,10.5260028 119.315996,10.804 120.196,10.804 C120.620002,10.804 121.035998,10.7560005 121.444,10.66 C121.852002,10.5639995 122.155999,10.4680005 122.356,10.372 L122.644,10.228 Z M131.356,12.064 L131.356,10.048 L127.324,10.048 L127.324,12.064 L125.824,12.064 L125.824,7.252 C125.824,5.97999364 126.123997,5.0340031 126.724,4.414 C127.324003,3.7939969 128.187994,3.484 129.316,3.484 C130.444006,3.484 131.315997,3.79599688 131.932,4.42 C132.548003,5.04400312 132.856,5.98799368 132.856,7.252 L132.856,12.064 L131.356,12.064 Z M127.324,7.252 L127.324,8.872 C127.820002,8.86399996 129.163989,8.86 131.356,8.86 L131.356,7.264 C131.356,5.65599196 130.684007,4.852 129.34,4.852 C128.715997,4.852 128.224002,5.04799804 127.864,5.44 C127.503998,5.83200196 127.324,6.43599592 127.324,7.252 L127.324,7.252 Z M130.948,2.176 L128.116,2.992 L127.876,2.32 L130.516,1 L130.948,2.176 Z M136.252,12.064 L136.252,3.628 L139.432,3.628 C140.744007,3.628 141.823996,4.02399604 142.672,4.816 C143.520004,5.60800396 143.944,6.61599388 143.944,7.84 C143.944,9.04800604 143.514004,10.053996 142.654,10.858 C141.793996,11.662004 140.720006,12.064 139.432,12.064 L136.252,12.064 Z M139.444,4.996 L137.752,4.996 L137.752,10.696 L139.444,10.696 C140.268004,10.696 140.957997,10.4280027 141.514,9.892 C142.070003,9.35599732 142.348,8.68000408 142.348,7.864 C142.348,7.03199584 142.076003,6.3460027 141.532,5.806 C140.987997,5.2659973 140.292004,4.996 139.444,4.996 L139.444,4.996 Z M146.908,12.064 L146.908,3.628 L148.396,3.628 L148.396,12.064 L146.908,12.064 Z M151.456,3.628 L158.224,3.628 L158.224,4.084 L153.604,10.696 L158.116,10.696 L158.116,12.064 L151.144,12.064 L151.144,11.608 L155.752,4.996 L151.456,4.996 L151.456,3.628 Z"></path>
</svg>