<svg width="16" height="16" viewBox="0 0 16 16" xmlns="http://www.w3.org/2000/svg">
  <path d="M12.303 7.355l1.61-1.61c.317-.317.82-.315 1.13-.004.313.314.31.817-.003 1.13l-1.61 1.61 1.61 1.612c.312.313.316.816.003 1.13-.31.31-.813.312-1.13-.004l-1.61-1.61-1.61 1.61c-.318.316-.82.314-1.13.003-.313-.312-.31-.815.003-1.128l1.61-1.61-1.61-1.612c-.313-.313-.316-.816-.003-1.13.31-.31.812-.312 1.13.004l1.61 1.61zM8.005 13.6c0 .29-.163.55-.418.673-.098.048-.204.07-.31.07-.165 0-.33-.057-.463-.17l-3.972-3.367H.727c-.402 0-.727-.332-.727-.742v-2.96c0-.412.325-.745.727-.745h2.115l3.973-3.367c.217-.184.518-.223.772-.1.255.122.418.384.418.672V13.6z" fill="#FFF" fill-rule="evenodd"/>
</svg>