<svg width="16" height="16" viewBox="0 0 16 16" xmlns="http://www.w3.org/2000/svg">
  <path d="M8.005 13.6c0 .29-.163.55-.418.673-.098.048-.204.07-.31.07-.165 0-.33-.057-.463-.17l-3.972-3.367H.727c-.402 0-.727-.332-.727-.742v-2.96c0-.412.325-.745.727-.745h2.115l3.973-3.367c.217-.184.518-.223.772-.1.255.122.418.384.418.672V13.6zm2.792-1.16l-.052.002c-.192 0-.377-.078-.514-.218l-.096-.1c-.255-.26-.285-.672-.07-.968.544-.75.83-1.64.83-2.573 0-1.003-.325-1.945-.942-2.722-.235-.295-.213-.724.05-.993l.097-.1c.144-.148.34-.23.55-.216.204.012.396.11.526.273.856 1.07 1.308 2.372 1.308 3.76 0 1.294-.4 2.525-1.157 3.56-.126.173-.32.28-.53.297zm3.004 2.296c-.13.16-.32.255-.524.263h-.03c-.193 0-.377-.078-.514-.218l-.095-.097c-.267-.273-.285-.71-.043-1.004 1.172-1.424 1.818-3.235 1.818-5.097 0-1.936-.69-3.8-1.946-5.25-.254-.293-.24-.74.03-1.017l.094-.097c.142-.146.325-.226.536-.22.2.006.39.097.522.25C15.165 3.996 16 6.245 16 8.583c0 2.25-.78 4.435-2.2 6.153z" fill="#FFF" fill-rule="evenodd"/>
</svg>