<svg width="16" height="16" viewBox="0 0 16 16" xmlns="http://www.w3.org/2000/svg"><path d="M8.333 2C5.387 2 3 2.333 3 4.667V11c0 1.287 1.047 2.333 2.333 2.333l-1 1v.334h8v-.334l-1-1c1.287 0 2.334-1.046 2.334-2.333V4.667C13.667 2.333 11.28 2 8.333 2zm-3 10c-.553 0-1-.447-1-1 0-.553.447-1 1-1 .554 0 1 .447 1 1 0 .553-.446 1-1 1zm2.334-4H4.333V4.667h3.334V8zm3.666 4c-.553 0-1-.447-1-1 0-.553.447-1 1-1 .554 0 1 .447 1 1 0 .553-.446 1-1 1zm1-4H9V4.667h3.333V8z" fill="#FFF" fill-rule="evenodd"/></svg>